<svg width="109" height="104" viewBox="0 0 109 104" fill="none" xmlns="http://www.w3.org/2000/svg">
<g filter="url(#filter0_i_265_1897)">
<path fill-rule="evenodd" clip-rule="evenodd" d="M61.0335 1.89528L105.604 31.7796C109.352 34.3066 109.352 38.3953 105.604 40.9224L61.0335 70.8067C59.1509 72.0689 56.6872 72.7007 54.223 72.702H85.0162C93.4207 72.702 100.234 79.5151 100.234 87.9195C100.234 96.324 93.4207 103.137 85.0162 103.137H24.1459C15.7415 103.137 8.92831 96.324 8.92831 87.9195C8.92831 79.5151 15.7415 72.702 24.1459 72.702H54.2081C51.7438 72.7007 49.2802 72.0689 47.3976 70.8067L2.8267 40.9224C-0.942235 38.3953 -0.942235 34.3066 2.8267 31.7796L47.3976 1.89528C51.1665 -0.631759 57.2646 -0.631759 61.0335 1.89528ZM73.1026 45.5408L53.4427 59.0801L33.7828 45.3308V54.9346C33.7828 57.2203 36.5566 59.0801 39.9656 59.0801H53.4427H66.9198C70.3288 59.0801 73.1026 57.2203 73.1026 54.9346V45.5408Z" fill="white"/>
</g>
<g filter="url(#filter1_d_265_1897)">
<path d="M38.831 85.2391V86.7632H36.8337V93.0487H34.9974V86.7632H33V85.2391H38.831Z" fill="#318DC1"/>
<path d="M42.4802 93.1377C41.8932 93.1377 41.3634 93.0079 40.8909 92.7483C40.4256 92.4887 40.0569 92.1179 39.7848 91.6358C39.5199 91.1538 39.3875 90.5901 39.3875 89.9449C39.3875 89.307 39.5235 88.7471 39.7956 88.265C40.0676 87.7755 40.4399 87.401 40.9124 87.1414C41.3849 86.8818 41.9146 86.752 42.5017 86.752C43.0887 86.752 43.6185 86.8818 44.091 87.1414C44.5635 87.401 44.9357 87.7755 45.2078 88.265C45.4798 88.7471 45.6158 89.307 45.6158 89.9449C45.6158 90.5827 45.4762 91.1463 45.197 91.6358C44.925 92.1179 44.5491 92.4887 44.0695 92.7483C43.597 93.0079 43.0672 93.1377 42.4802 93.1377ZM42.4802 91.4912C42.831 91.4912 43.1281 91.3577 43.3715 91.0907C43.6221 90.8237 43.7473 90.4418 43.7473 89.9449C43.7473 89.448 43.6256 89.066 43.3822 88.799C43.146 88.532 42.8525 88.3985 42.5017 88.3985C42.1437 88.3985 41.8466 88.532 41.6104 88.799C41.3741 89.0586 41.256 89.4405 41.256 89.9449C41.256 90.4418 41.3705 90.8237 41.5996 91.0907C41.8359 91.3577 42.1294 91.4912 42.4802 91.4912Z" fill="#318DC1"/>
<path d="M51.6899 85.2391C52.4846 85.2391 53.179 85.4022 53.7732 85.7285C54.3674 86.0549 54.8256 86.5147 55.1477 87.108C55.477 87.6939 55.6417 88.3726 55.6417 89.1439C55.6417 89.9078 55.477 90.5864 55.1477 91.1797C54.8256 91.773 54.3638 92.2329 53.7624 92.5592C53.1682 92.8855 52.4774 93.0487 51.6899 93.0487H48.8657V85.2391H51.6899ZM51.5718 91.4022C52.2662 91.4022 52.8067 91.2057 53.1933 90.8126C53.5799 90.4195 53.7732 89.8633 53.7732 89.1439C53.7732 88.4245 53.5799 87.8645 53.1933 87.464C52.8067 87.0635 52.2662 86.8633 51.5718 86.8633H50.702V91.4022H51.5718Z" fill="#318DC1"/>
<path d="M59.3955 93.1377C58.8084 93.1377 58.2787 93.0079 57.8062 92.7483C57.3408 92.4887 56.9721 92.1179 56.7001 91.6358C56.4352 91.1538 56.3028 90.5901 56.3028 89.9449C56.3028 89.307 56.4388 88.7471 56.7108 88.265C56.9829 87.7755 57.3552 87.401 57.8276 87.1414C58.3001 86.8818 58.8299 86.752 59.4169 86.752C60.004 86.752 60.5338 86.8818 61.0062 87.1414C61.4787 87.401 61.851 87.7755 62.1231 88.265C62.3951 88.7471 62.5311 89.307 62.5311 89.9449C62.5311 90.5827 62.3915 91.1463 62.1123 91.6358C61.8403 92.1179 61.4644 92.4887 60.9848 92.7483C60.5123 93.0079 59.9825 93.1377 59.3955 93.1377ZM59.3955 91.4912C59.7463 91.4912 60.0434 91.3577 60.2868 91.0907C60.5373 90.8237 60.6626 90.4418 60.6626 89.9449C60.6626 89.448 60.5409 89.066 60.2975 88.799C60.0613 88.532 59.7677 88.3985 59.4169 88.3985C59.059 88.3985 58.7619 88.532 58.5256 88.799C58.2894 89.0586 58.1713 89.4405 58.1713 89.9449C58.1713 90.4418 58.2858 90.8237 58.5149 91.0907C58.7512 91.3577 59.0447 91.4912 59.3955 91.4912Z" fill="#318DC1"/>
<path d="M64.4288 86.1958C64.1067 86.1958 63.8418 86.0994 63.6342 85.9065C63.4337 85.7063 63.3335 85.4616 63.3335 85.1723C63.3335 84.8756 63.4337 84.6309 63.6342 84.4381C63.8418 84.2378 64.1067 84.1377 64.4288 84.1377C64.7438 84.1377 65.0015 84.2378 65.202 84.4381C65.4096 84.6309 65.5134 84.8756 65.5134 85.1723C65.5134 85.4616 65.4096 85.7063 65.202 85.9065C65.0015 86.0994 64.7438 86.1958 64.4288 86.1958ZM65.3416 86.841V93.0487H63.5053V86.841H65.3416Z" fill="#318DC1"/>
<path d="M69.11 93.1377C68.5874 93.1377 68.122 93.045 67.714 92.8596C67.3059 92.6742 66.9837 92.422 66.7475 92.1031C66.5113 91.7768 66.3788 91.4133 66.3502 91.0128H68.165C68.1865 91.2279 68.2831 91.4022 68.4549 91.5357C68.6267 91.6692 68.8379 91.736 69.0885 91.736C69.3176 91.736 69.493 91.6915 69.6147 91.6025C69.7435 91.5061 69.808 91.3837 69.808 91.2353C69.808 91.0573 69.7185 90.9276 69.5395 90.846C69.3605 90.757 69.0706 90.6606 68.6697 90.5567C68.2402 90.4529 67.8822 90.3454 67.5958 90.2341C67.3095 90.1154 67.0625 89.9337 66.8549 89.689C66.6473 89.4368 66.5435 89.0994 66.5435 88.6766C66.5435 88.3206 66.6365 87.998 66.8227 87.7088C67.016 87.4121 67.2952 87.1785 67.6603 87.0079C68.0325 86.8373 68.4728 86.752 68.9811 86.752C69.7328 86.752 70.3234 86.9449 70.753 87.3305C71.1897 87.7162 71.4402 88.2279 71.5047 88.8658H69.808C69.7793 88.6507 69.6863 88.4801 69.5288 88.354C69.3784 88.2279 69.178 88.1649 68.9274 88.1649C68.7127 88.1649 68.548 88.2094 68.4334 88.2984C68.3189 88.38 68.2616 88.4949 68.2616 88.6433C68.2616 88.8213 68.3511 88.9548 68.5301 89.0438C68.7162 89.1328 69.0026 89.2217 69.3892 89.3107C69.833 89.4294 70.1946 89.5481 70.4738 89.6667C70.753 89.778 70.9964 89.9634 71.204 90.223C71.4188 90.4751 71.5297 90.8163 71.5369 91.2465C71.5369 91.6099 71.4367 91.9362 71.2362 92.2255C71.0429 92.5073 70.7601 92.7298 70.3879 92.8929C70.0228 93.0561 69.5968 93.1377 69.11 93.1377Z" fill="#318DC1"/>
<path d="M76 91.4356V93.0487H75.0658C74.4 93.0487 73.8809 92.8818 73.5087 92.5481C73.1364 92.2069 72.9503 91.6544 72.9503 90.8905V88.4208H72.22V86.841H72.9503V85.3281H74.7865V86.841H75.9893V88.4208H74.7865V90.9127C74.7865 91.0981 74.8295 91.2316 74.9154 91.3132C75.0013 91.3948 75.1445 91.4356 75.345 91.4356H76Z" fill="#318DC1"/>
</g>
<g filter="url(#filter2_d_265_1897)">
<path d="M73 20.5104H57.5102V47.3994C57.5102 49.4599 55.8156 51.1377 53.7344 51.1377C51.6533 51.1377 49.9586 49.4599 49.9586 47.3994V20.5104H36L41.9462 14.1377H67.0538L73 20.5104Z" fill="#318DC1"/>
</g>
<defs>
<filter id="filter0_i_265_1897" x="0" y="0" width="108.415" height="107.137" filterUnits="userSpaceOnUse" color-interpolation-filters="sRGB">
<feFlood flood-opacity="0" result="BackgroundImageFix"/>
<feBlend mode="normal" in="SourceGraphic" in2="BackgroundImageFix" result="shape"/>
<feColorMatrix in="SourceAlpha" type="matrix" values="0 0 0 0 0 0 0 0 0 0 0 0 0 0 0 0 0 0 127 0" result="hardAlpha"/>
<feOffset dy="4"/>
<feGaussianBlur stdDeviation="2"/>
<feComposite in2="hardAlpha" operator="arithmetic" k2="-1" k3="1"/>
<feColorMatrix type="matrix" values="0 0 0 0 0 0 0 0 0 0 0 0 0 0 0 0 0 0 0.5 0"/>
<feBlend mode="normal" in2="shape" result="effect1_innerShadow_265_1897"/>
</filter>
<filter id="filter1_d_265_1897" x="29" y="84.1377" width="51" height="17" filterUnits="userSpaceOnUse" color-interpolation-filters="sRGB">
<feFlood flood-opacity="0" result="BackgroundImageFix"/>
<feColorMatrix in="SourceAlpha" type="matrix" values="0 0 0 0 0 0 0 0 0 0 0 0 0 0 0 0 0 0 127 0" result="hardAlpha"/>
<feOffset dy="4"/>
<feGaussianBlur stdDeviation="2"/>
<feComposite in2="hardAlpha" operator="out"/>
<feColorMatrix type="matrix" values="0 0 0 0 0 0 0 0 0 0 0 0 0 0 0 0 0 0 0.25 0"/>
<feBlend mode="normal" in2="BackgroundImageFix" result="effect1_dropShadow_265_1897"/>
<feBlend mode="normal" in="SourceGraphic" in2="effect1_dropShadow_265_1897" result="shape"/>
</filter>
<filter id="filter2_d_265_1897" x="32" y="14.1377" width="45" height="45" filterUnits="userSpaceOnUse" color-interpolation-filters="sRGB">
<feFlood flood-opacity="0" result="BackgroundImageFix"/>
<feColorMatrix in="SourceAlpha" type="matrix" values="0 0 0 0 0 0 0 0 0 0 0 0 0 0 0 0 0 0 127 0" result="hardAlpha"/>
<feOffset dy="4"/>
<feGaussianBlur stdDeviation="2"/>
<feComposite in2="hardAlpha" operator="out"/>
<feColorMatrix type="matrix" values="0 0 0 0 0 0 0 0 0 0 0 0 0 0 0 0 0 0 0.5 0"/>
<feBlend mode="normal" in2="BackgroundImageFix" result="effect1_dropShadow_265_1897"/>
<feBlend mode="normal" in="SourceGraphic" in2="effect1_dropShadow_265_1897" result="shape"/>
</filter>
</defs>
</svg>
