<svg width="464" height="358" viewBox="0 0 464 358" fill="none" xmlns="http://www.w3.org/2000/svg">
<g clip-path="url(#clip0_1_519)">
<path d="M419.975 342.513H44.0251C37.4422 342.512 30.9432 341.038 25.0066 338.199C19.0701 335.36 13.8472 331.227 9.72263 326.106C5.59808 320.984 2.67693 315.005 1.1743 308.607C-0.328336 302.21 -0.374167 295.557 1.04017 289.139L17.8327 212.949H446.167L462.96 289.139C464.374 295.557 464.328 302.21 462.826 308.607C461.323 315.005 458.402 320.984 454.277 326.106C450.153 331.227 444.93 335.36 438.993 338.199C433.057 341.038 426.558 342.512 419.975 342.513ZM18.8655 214.232L2.29515 289.415C0.922147 295.645 0.966673 302.104 2.42545 308.314C3.88423 314.525 6.72011 320.33 10.7242 325.302C14.7283 330.274 19.7987 334.286 25.5619 337.042C31.3252 339.799 37.6344 341.23 44.0251 341.23H419.975C426.366 341.23 432.675 339.799 438.438 337.042C444.201 334.286 449.272 330.274 453.276 325.302C457.28 320.33 460.116 314.525 461.574 308.314C463.033 302.104 463.078 295.645 461.705 289.415L445.134 214.232H18.8655Z" fill="#F2F2F2"/>
<path d="M372.238 50.2722L391.959 47.3384L388.844 33.645L377.021 39.5886L352.628 30.4123C352.281 29.5166 351.68 28.7412 350.898 28.1806C350.117 27.6201 349.189 27.2985 348.228 27.2553C347.267 27.212 346.314 27.4488 345.485 27.9369C344.656 28.425 343.988 29.1433 343.561 30.0041C343.134 30.8649 342.967 31.8311 343.081 32.7849C343.195 33.7386 343.584 34.6388 344.201 35.3755C344.819 36.1123 345.637 36.6538 346.558 36.9341C347.478 37.2143 348.46 37.2212 349.384 36.9539L372.238 50.2722Z" fill="#FFB6B6"/>
<path d="M412.32 40.0356C410.795 45.8049 375.664 52.3126 375.681 51.0645C375.731 47.5172 377.99 40.074 376.7 38.1431C375.962 37.0388 385.896 34.217 385.896 34.217C385.896 34.217 391.38 32.1103 398.488 29.5392C400.485 28.7751 402.642 28.5275 404.76 28.8196C406.878 29.1117 408.887 29.9339 410.601 31.2096C410.601 31.2096 413.845 34.2663 412.32 40.0356Z" fill="#6C63FF"/>
<path d="M72.4594 280.293H60.2508C57.5241 280.293 54.9091 281.375 52.9811 283.299C51.053 285.224 49.9698 287.834 49.9698 290.556C49.9698 293.278 51.053 295.888 52.9811 297.813C54.9091 299.737 57.5241 300.818 60.2508 300.818H72.4594C75.1861 300.818 77.8011 299.737 79.7291 297.813C81.6572 295.888 82.7404 293.278 82.7404 290.556C82.7404 287.834 81.6572 285.224 79.7291 283.299C77.8011 281.375 75.1861 280.293 72.4594 280.293Z" fill="#E6E6E6"/>
<path d="M111.656 280.293H99.447C96.7203 280.293 94.1053 281.375 92.1772 283.299C90.2492 285.224 89.166 287.834 89.166 290.556C89.166 293.278 90.2492 295.888 92.1772 297.813C94.1053 299.737 96.7203 300.818 99.447 300.818H111.656C114.382 300.818 116.997 299.737 118.925 297.813C120.853 295.888 121.937 293.278 121.937 290.556C121.937 287.834 120.853 285.224 118.925 283.299C116.997 281.375 114.382 280.293 111.656 280.293Z" fill="#E6E6E6"/>
<path d="M150.852 280.293H138.643C135.916 280.293 133.301 281.375 131.373 283.299C129.445 285.224 128.362 287.834 128.362 290.556C128.362 293.278 129.445 295.888 131.373 297.813C133.301 299.737 135.916 300.818 138.643 300.818H150.852C153.578 300.818 156.193 299.737 158.121 297.813C160.049 295.888 161.133 293.278 161.133 290.556C161.133 287.834 160.049 285.224 158.121 283.299C156.193 281.375 153.578 280.293 150.852 280.293Z" fill="#E6E6E6"/>
<path d="M190.048 280.293H177.839C175.112 280.293 172.497 281.375 170.569 283.299C168.641 285.224 167.558 287.834 167.558 290.556C167.558 293.278 168.641 295.888 170.569 297.813C172.497 299.737 175.112 300.818 177.839 300.818H190.048C192.774 300.818 195.389 299.737 197.317 297.813C199.245 295.888 200.329 293.278 200.329 290.556C200.329 287.834 199.245 285.224 197.317 283.299C195.389 281.375 192.774 280.293 190.048 280.293Z" fill="#E6E6E6"/>
<path d="M229.244 280.293H217.035C214.309 280.293 211.694 281.375 209.765 283.299C207.837 285.224 206.754 287.834 206.754 290.556C206.754 293.278 207.837 295.888 209.765 297.813C211.694 299.737 214.309 300.818 217.035 300.818H229.244C231.971 300.818 234.586 299.737 236.514 297.813C238.442 295.888 239.525 293.278 239.525 290.556C239.525 287.834 238.442 285.224 236.514 283.299C234.586 281.375 231.971 280.293 229.244 280.293Z" fill="#E6E6E6"/>
<path d="M268.44 280.293H256.231C253.505 280.293 250.89 281.375 248.962 283.299C247.033 285.224 245.95 287.834 245.95 290.556C245.95 293.278 247.033 295.888 248.962 297.813C250.89 299.737 253.505 300.818 256.231 300.818H268.44C271.167 300.818 273.782 299.737 275.71 297.813C277.638 295.888 278.721 293.278 278.721 290.556C278.721 287.834 277.638 285.224 275.71 283.299C273.782 281.375 271.167 280.293 268.44 280.293Z" fill="#E6E6E6"/>
<path d="M307.636 280.293H295.427C292.701 280.293 290.086 281.375 288.158 283.299C286.23 285.224 285.146 287.834 285.146 290.556C285.146 293.278 286.23 295.888 288.158 297.813C290.086 299.737 292.701 300.818 295.427 300.818H307.636C310.363 300.818 312.978 299.737 314.906 297.813C316.834 295.888 317.917 293.278 317.917 290.556C317.917 287.834 316.834 285.224 314.906 283.299C312.978 281.375 310.363 280.293 307.636 280.293Z" fill="#E6E6E6"/>
<path d="M346.832 280.293H334.623C331.897 280.293 329.282 281.375 327.354 283.299C325.426 285.224 324.343 287.834 324.343 290.556C324.343 293.278 325.426 295.888 327.354 297.813C329.282 299.737 331.897 300.818 334.623 300.818H346.832C349.559 300.818 352.174 299.737 354.102 297.813C356.03 295.888 357.113 293.278 357.113 290.556C357.113 287.834 356.03 285.224 354.102 283.299C352.174 281.375 349.559 280.293 346.832 280.293Z" fill="#E6E6E6"/>
<path d="M386.028 280.293H373.82C371.093 280.293 368.478 281.375 366.55 283.299C364.622 285.224 363.539 287.834 363.539 290.556C363.539 293.278 364.622 295.888 366.55 297.813C368.478 299.737 371.093 300.818 373.82 300.818H386.028C388.755 300.818 391.37 299.737 393.298 297.813C395.226 295.888 396.309 293.278 396.309 290.556C396.309 287.834 395.226 285.224 393.298 283.299C391.37 281.375 388.755 280.293 386.028 280.293Z" fill="#E6E6E6"/>
<path d="M72.4594 237.319H60.2508C57.5241 237.319 54.9091 238.401 52.9811 240.325C51.053 242.25 49.9698 244.86 49.9698 247.582C49.9698 250.304 51.053 252.914 52.9811 254.838C54.9091 256.763 57.5241 257.844 60.2508 257.844H72.4594C75.1861 257.844 77.8011 256.763 79.7291 254.838C81.6572 252.914 82.7404 250.304 82.7404 247.582C82.7404 244.86 81.6572 242.25 79.7291 240.325C77.8011 238.401 75.1861 237.319 72.4594 237.319Z" fill="#E6E6E6"/>
<path d="M111.656 237.319H99.447C96.7203 237.319 94.1053 238.401 92.1772 240.325C90.2492 242.25 89.166 244.86 89.166 247.582C89.166 250.304 90.2492 252.914 92.1772 254.838C94.1053 256.763 96.7203 257.844 99.447 257.844H111.656C114.382 257.844 116.997 256.763 118.925 254.838C120.853 252.914 121.937 250.304 121.937 247.582C121.937 244.86 120.853 242.25 118.925 240.325C116.997 238.401 114.382 237.319 111.656 237.319Z" fill="#E6E6E6"/>
<path d="M150.852 237.319H138.643C135.916 237.319 133.301 238.401 131.373 240.325C129.445 242.25 128.362 244.86 128.362 247.582C128.362 250.304 129.445 252.914 131.373 254.838C133.301 256.763 135.916 257.844 138.643 257.844H150.852C153.578 257.844 156.193 256.763 158.121 254.838C160.049 252.914 161.133 250.304 161.133 247.582C161.133 244.86 160.049 242.25 158.121 240.325C156.193 238.401 153.578 237.319 150.852 237.319Z" fill="#6C63FF"/>
<path d="M190.048 237.319H177.839C175.112 237.319 172.497 238.401 170.569 240.325C168.641 242.25 167.558 244.86 167.558 247.582C167.558 250.304 168.641 252.914 170.569 254.838C172.497 256.763 175.112 257.844 177.839 257.844H190.048C192.774 257.844 195.389 256.763 197.317 254.838C199.245 252.914 200.329 250.304 200.329 247.582C200.329 244.86 199.245 242.25 197.317 240.325C195.389 238.401 192.774 237.319 190.048 237.319Z" fill="#E6E6E6"/>
<path d="M229.244 237.319H217.035C214.309 237.319 211.694 238.401 209.765 240.325C207.837 242.25 206.754 244.86 206.754 247.582C206.754 250.304 207.837 252.914 209.765 254.838C211.694 256.763 214.309 257.844 217.035 257.844H229.244C231.971 257.844 234.586 256.763 236.514 254.838C238.442 252.914 239.525 250.304 239.525 247.582C239.525 244.86 238.442 242.25 236.514 240.325C234.586 238.401 231.971 237.319 229.244 237.319Z" fill="#E6E6E6"/>
<path d="M268.44 237.319H256.231C253.505 237.319 250.89 238.401 248.962 240.325C247.033 242.25 245.95 244.86 245.95 247.582C245.95 250.304 247.033 252.914 248.962 254.838C250.89 256.763 253.505 257.844 256.231 257.844H268.44C271.167 257.844 273.782 256.763 275.71 254.838C277.638 252.914 278.721 250.304 278.721 247.582C278.721 244.86 277.638 242.25 275.71 240.325C273.782 238.401 271.167 237.319 268.44 237.319Z" fill="#E6E6E6"/>
<path d="M307.636 237.319H295.427C292.701 237.319 290.086 238.401 288.158 240.325C286.23 242.25 285.146 244.86 285.146 247.582C285.146 250.304 286.23 252.914 288.158 254.838C290.086 256.763 292.701 257.844 295.427 257.844H307.636C310.363 257.844 312.978 256.763 314.906 254.838C316.834 252.914 317.917 250.304 317.917 247.582C317.917 244.86 316.834 242.25 314.906 240.325C312.978 238.401 310.363 237.319 307.636 237.319Z" fill="#E6E6E6"/>
<path d="M346.832 237.319H334.623C331.897 237.319 329.282 238.401 327.354 240.325C325.426 242.25 324.343 244.86 324.343 247.582C324.343 250.304 325.426 252.914 327.354 254.838C329.282 256.763 331.897 257.844 334.623 257.844H346.832C349.559 257.844 352.174 256.763 354.102 254.838C356.03 252.914 357.113 250.304 357.113 247.582C357.113 244.86 356.03 242.25 354.102 240.325C352.174 238.401 349.559 237.319 346.832 237.319Z" fill="#E6E6E6"/>
<path d="M386.028 237.319H373.82C371.093 237.319 368.478 238.401 366.55 240.325C364.622 242.25 363.539 244.86 363.539 247.582C363.539 250.304 364.622 252.914 366.55 254.838C368.478 256.763 371.093 257.844 373.82 257.844H386.028C388.755 257.844 391.37 256.763 393.298 254.838C395.226 252.914 396.309 250.304 396.309 247.582C396.309 244.86 395.226 242.25 393.298 240.325C391.37 238.401 388.755 237.319 386.028 237.319Z" fill="#E6E6E6"/>
<path d="M90.7724 259.448H78.5638C75.8371 259.448 73.2221 260.529 71.2941 262.454C69.366 264.378 68.2828 266.988 68.2828 269.71C68.2828 272.432 69.366 275.042 71.2941 276.967C73.2221 278.891 75.8371 279.973 78.5638 279.973H90.7724C93.4991 279.973 96.1141 278.891 98.0421 276.967C99.9702 275.042 101.053 272.432 101.053 269.71C101.053 266.988 99.9702 264.378 98.0421 262.454C96.1141 260.529 93.4991 259.448 90.7724 259.448Z" fill="#E6E6E6"/>
<path d="M129.968 259.448H117.76C115.033 259.448 112.418 260.529 110.49 262.454C108.562 264.378 107.479 266.988 107.479 269.71C107.479 272.432 108.562 275.042 110.49 276.967C112.418 278.891 115.033 279.973 117.76 279.973H129.968C132.695 279.973 135.31 278.891 137.238 276.967C139.166 275.042 140.249 272.432 140.249 269.71C140.249 266.988 139.166 264.378 137.238 262.454C135.31 260.529 132.695 259.448 129.968 259.448Z" fill="#E6E6E6"/>
<path d="M169.165 259.448H156.956C154.229 259.448 151.614 260.529 149.686 262.454C147.758 264.378 146.675 266.988 146.675 269.71C146.675 272.432 147.758 275.042 149.686 276.967C151.614 278.891 154.229 279.973 156.956 279.973H169.165C171.891 279.973 174.506 278.891 176.434 276.967C178.362 275.042 179.446 272.432 179.446 269.71C179.446 266.988 178.362 264.378 176.434 262.454C174.506 260.529 171.891 259.448 169.165 259.448Z" fill="#E6E6E6"/>
<path d="M208.361 259.448H196.152C193.425 259.448 190.81 260.529 188.882 262.454C186.954 264.378 185.871 266.988 185.871 269.71C185.871 272.432 186.954 275.042 188.882 276.967C190.81 278.891 193.425 279.973 196.152 279.973H208.361C211.087 279.973 213.702 278.891 215.63 276.967C217.558 275.042 218.642 272.432 218.642 269.71C218.642 266.988 217.558 264.378 215.63 262.454C213.702 260.529 211.087 259.448 208.361 259.448Z" fill="#E6E6E6"/>
<path d="M247.557 259.448H235.348C232.621 259.448 230.006 260.529 228.078 262.454C226.15 264.378 225.067 266.988 225.067 269.71C225.067 272.432 226.15 275.042 228.078 276.967C230.006 278.891 232.621 279.973 235.348 279.973H247.557C250.283 279.973 252.898 278.891 254.826 276.967C256.754 275.042 257.838 272.432 257.838 269.71C257.838 266.988 256.754 264.378 254.826 262.454C252.898 260.529 250.283 259.448 247.557 259.448Z" fill="#E6E6E6"/>
<path d="M286.753 259.448H274.544C271.818 259.448 269.203 260.529 267.275 262.454C265.346 264.378 264.263 266.988 264.263 269.71C264.263 272.432 265.346 275.042 267.275 276.967C269.203 278.891 271.818 279.973 274.544 279.973H286.753C289.48 279.973 292.095 278.891 294.023 276.967C295.951 275.042 297.034 272.432 297.034 269.71C297.034 266.988 295.951 264.378 294.023 262.454C292.095 260.529 289.48 259.448 286.753 259.448Z" fill="#E6E6E6"/>
<path d="M325.949 259.448H313.74C311.014 259.448 308.399 260.529 306.471 262.454C304.543 264.378 303.459 266.988 303.459 269.71C303.459 272.432 304.543 275.042 306.471 276.967C308.399 278.891 311.014 279.973 313.74 279.973H325.949C328.676 279.973 331.291 278.891 333.219 276.967C335.147 275.042 336.23 272.432 336.23 269.71C336.23 266.988 335.147 264.378 333.219 262.454C331.291 260.529 328.676 259.448 325.949 259.448Z" fill="#E6E6E6"/>
<path d="M365.145 259.448H352.936C350.21 259.448 347.595 260.529 345.667 262.454C343.739 264.378 342.656 266.988 342.656 269.71C342.656 272.432 343.739 275.042 345.667 276.967C347.595 278.891 350.21 279.973 352.936 279.973H365.145C367.872 279.973 370.487 278.891 372.415 276.967C374.343 275.042 375.426 272.432 375.426 269.71C375.426 266.988 374.343 264.378 372.415 262.454C370.487 260.529 367.872 259.448 365.145 259.448Z" fill="#E6E6E6"/>
<path d="M404.341 259.448H392.133C389.406 259.448 386.791 260.529 384.863 262.454C382.935 264.378 381.852 266.988 381.852 269.71C381.852 272.432 382.935 275.042 384.863 276.967C386.791 278.891 389.406 279.973 392.133 279.973H404.341C407.068 279.973 409.683 278.891 411.611 276.967C413.539 275.042 414.622 272.432 414.622 269.71C414.622 266.988 413.539 264.378 411.611 262.454C409.683 260.529 407.068 259.448 404.341 259.448Z" fill="#E6E6E6"/>
<path d="M359.125 213.587H105.466C101.443 213.583 97.5855 211.985 94.7404 209.145C91.8953 206.305 90.2949 202.455 90.2904 198.439L90.307 198.294C99.2809 159.535 99.2774 110.947 90.2964 45.3818L90.2904 45.2948C90.295 41.2785 91.8954 37.428 94.7404 34.588C97.5855 31.7481 101.443 30.1506 105.466 30.146H359.125C363.149 30.1506 367.006 31.7481 369.851 34.588C372.697 37.428 374.297 41.2785 374.302 45.2948L374.287 45.4289C363.434 95.8116 363.434 147.922 374.287 198.305L374.302 198.439C374.297 202.455 372.697 206.306 369.852 209.145C367.006 211.985 363.149 213.583 359.125 213.587Z" fill="white"/>
<path d="M359.125 213.587H105.466C101.443 213.583 97.5855 211.985 94.7404 209.145C91.8953 206.305 90.2949 202.455 90.2904 198.439L90.307 198.294C99.2809 159.535 99.2774 110.947 90.2964 45.3818L90.2904 45.2948C90.295 41.2785 91.8954 37.428 94.7404 34.588C97.5855 31.7481 101.443 30.1506 105.466 30.146H359.125C363.149 30.1506 367.006 31.7481 369.851 34.588C372.697 37.428 374.297 41.2785 374.302 45.2948L374.287 45.4289C363.434 95.8116 363.434 147.922 374.287 198.305L374.302 198.439C374.297 202.455 372.697 206.306 369.852 209.145C367.006 211.985 363.149 213.583 359.125 213.587ZM91.5758 198.511C91.5991 202.174 93.0723 205.68 95.6743 208.264C98.2764 210.848 101.796 212.3 105.466 212.305H359.125C362.797 212.3 366.317 210.847 368.919 208.262C371.522 205.677 372.994 202.17 373.016 198.506C362.143 147.989 362.143 95.744 373.016 45.2277C372.994 41.5632 371.522 38.056 368.919 35.471C366.317 32.886 362.797 31.433 359.125 31.4288H105.466C101.791 31.433 98.2669 32.8893 95.664 35.4794C93.0611 38.0695 91.5912 41.5829 91.5755 45.2516C100.567 110.911 100.567 159.617 91.5758 198.511Z" fill="#E6E6E6"/>
<path d="M332.535 75.3649H127.559C126.451 75.3649 125.389 74.9256 124.606 74.1437C123.822 73.3619 123.382 72.3015 123.382 71.1957C123.382 70.09 123.822 69.0296 124.606 68.2477C125.389 67.4659 126.451 67.0266 127.559 67.0266H332.535C333.643 67.0266 334.705 67.4659 335.488 68.2477C336.272 69.0296 336.712 70.09 336.712 71.1957C336.712 72.3015 336.272 73.3619 335.488 74.1437C334.705 74.9256 333.643 75.3649 332.535 75.3649Z" fill="#E6E6E6"/>
<path d="M332.535 95.5692H127.559C126.451 95.5692 125.389 95.13 124.606 94.3481C123.822 93.5662 123.382 92.5058 123.382 91.4001C123.382 90.2944 123.822 89.2339 124.606 88.4521C125.389 87.6702 126.451 87.231 127.559 87.231H332.535C333.643 87.231 334.705 87.6702 335.488 88.4521C336.272 89.2339 336.712 90.2944 336.712 91.4001C336.712 92.5058 336.272 93.5662 335.488 94.3481C334.705 95.13 333.643 95.5692 332.535 95.5692Z" fill="#E6E6E6"/>
<path d="M332.535 115.773H127.559C126.451 115.773 125.389 115.334 124.606 114.552C123.822 113.77 123.382 112.71 123.382 111.604C123.382 110.498 123.822 109.438 124.606 108.656C125.389 107.874 126.451 107.435 127.559 107.435H332.535C333.643 107.435 334.705 107.874 335.488 108.656C336.272 109.438 336.712 110.498 336.712 111.604C336.712 112.71 336.272 113.77 335.488 114.552C334.705 115.334 333.643 115.773 332.535 115.773Z" fill="#E6E6E6"/>
<path d="M332.535 135.978H127.559C126.451 135.978 125.389 135.538 124.606 134.756C123.822 133.975 123.382 132.914 123.382 131.808C123.382 130.703 123.822 129.642 124.606 128.86C125.389 128.079 126.451 127.639 127.559 127.639H332.535C333.643 127.639 334.705 128.079 335.488 128.86C336.272 129.642 336.712 130.703 336.712 131.808C336.712 132.914 336.272 133.975 335.488 134.756C334.705 135.538 333.643 135.978 332.535 135.978Z" fill="#E6E6E6"/>
<path d="M332.535 156.182H127.559C126.451 156.182 125.389 155.743 124.606 154.961C123.822 154.179 123.382 153.118 123.382 152.013C123.382 150.907 123.822 149.846 124.606 149.065C125.389 148.283 126.451 147.844 127.559 147.844H332.535C333.643 147.844 334.705 148.283 335.488 149.065C336.272 149.846 336.712 150.907 336.712 152.013C336.712 153.118 336.272 154.179 335.488 154.961C334.705 155.743 333.643 156.182 332.535 156.182Z" fill="#E6E6E6"/>
<path d="M219.445 176.386H127.559C126.451 176.386 125.389 175.947 124.606 175.165C123.822 174.383 123.382 173.323 123.382 172.217C123.382 171.111 123.822 170.051 124.606 169.269C125.389 168.487 126.451 168.048 127.559 168.048H219.445C220.552 168.048 221.615 168.487 222.398 169.269C223.181 170.051 223.621 171.111 223.621 172.217C223.621 173.323 223.181 174.383 222.398 175.165C221.615 175.947 220.552 176.386 219.445 176.386Z" fill="#6C63FF"/>
<path d="M231.128 208.136H214.213C213.957 208.133 213.704 208.073 213.474 207.96C213.244 207.847 213.042 207.683 212.884 207.482C212.697 207.244 212.566 206.969 212.499 206.674C212.432 206.38 212.432 206.075 212.498 205.78L220.458 169.832C220.521 169.429 220.725 169.061 221.034 168.793C221.342 168.525 221.736 168.375 222.145 168.369C222.554 168.362 222.952 168.501 223.269 168.759C223.586 169.017 223.801 169.379 223.876 169.78L232.831 205.728C232.906 206.025 232.913 206.336 232.85 206.636C232.788 206.936 232.659 207.219 232.473 207.462C232.315 207.67 232.112 207.838 231.878 207.955C231.645 208.071 231.388 208.133 231.128 208.136Z" fill="#E6E6E6"/>
<path d="M443.698 221.605H20.894C18.5934 221.605 16.387 220.693 14.7602 219.069C13.1334 217.445 12.2195 215.243 12.2195 212.946C12.2195 210.65 13.1334 208.447 14.7602 206.823C16.387 205.199 18.5934 204.287 20.894 204.287H443.698C445.999 204.287 448.205 205.199 449.832 206.823C451.459 208.447 452.372 210.65 452.372 212.946C452.372 215.243 451.459 217.445 449.832 219.069C448.205 220.693 445.999 221.605 443.698 221.605Z" fill="#F2F2F2"/>
<path d="M390.157 199.921L383.988 199.92L381.053 176.166L390.159 176.167L390.157 199.921Z" fill="#FFB6B6"/>
<path d="M391.731 205.89L371.837 205.89V205.639C371.837 203.589 372.653 201.623 374.105 200.173C375.557 198.724 377.527 197.91 379.58 197.91H379.581L383.215 195.158L389.995 197.91L391.731 197.91L391.731 205.89Z" fill="#2F2E41"/>
<path d="M445.904 191.914L440.382 194.661L427.139 174.708L435.289 170.654L445.904 191.914Z" fill="#FFB6B6"/>
<path d="M449.98 196.556L432.175 205.414L432.063 205.189C431.147 203.354 430.999 201.232 431.651 199.288C432.303 197.344 433.701 195.738 435.539 194.824L435.539 194.824L437.562 190.743L444.86 190.187L446.414 189.414L449.98 196.556Z" fill="#2F2E41"/>
<path d="M387.424 92.0366L421.444 93.2252L423.988 97.9409C423.988 97.9409 426.652 117.234 425.288 118.596C423.923 119.958 423.241 119.958 423.923 122.341C424.605 124.725 426.369 147.499 426.369 147.499C426.369 147.499 440.423 176.597 441.105 178.299C441.787 180.002 442.469 179.321 441.787 180.002C441.183 180.652 440.614 181.334 440.082 182.045H428.963C428.963 182.045 422.976 166.97 417.495 161.139C412.656 155.991 409.592 149.434 408.749 142.424L404.138 120.639L394.246 154.008C394.246 154.008 392.54 187.037 392.882 188.739L393.223 190.442L380.117 190.588C380.117 190.588 378.753 187.718 379.435 186.696C380.117 185.675 380.076 185.954 379.244 184.282C378.412 182.61 378.753 179.778 378.753 179.778C378.753 179.778 383.671 112.807 383.671 111.786C383.697 111.26 383.6 110.736 383.388 110.254V108.867L384.695 103.954L387.424 92.0366Z" fill="#2F2E41"/>
<path d="M402.092 30.4219C399.878 31.736 398.553 34.1504 397.793 36.6074C396.385 41.1561 395.537 45.8591 395.269 50.6124L394.466 64.8429C394.066 74.0267 391.506 82.9878 386.995 91.0016C386.66 91.6117 386.469 92.29 386.437 92.9848C386.405 93.6796 386.531 94.3727 386.808 95.0113C387.084 95.6498 387.503 96.217 388.032 96.6698C388.561 97.1225 389.186 97.4488 389.86 97.6238C402.191 100.853 425.544 96.7985 425.544 96.7985C425.544 96.7985 426.538 96.4676 425.544 95.4747C424.549 94.4818 422.318 89.5172 422.318 89.5172L424.97 72.1242L428.286 37.0413C424.307 32.0767 416.305 29.1501 416.305 29.1501L414.237 25.4352L403.899 26.2607L402.092 30.4219Z" fill="#6C63FF"/>
<path d="M408.654 23.2763C414.139 23.2763 418.585 18.838 418.585 13.3631C418.585 7.88822 414.139 3.44995 408.654 3.44995C403.17 3.44995 398.723 7.88822 398.723 13.3631C398.723 18.838 403.17 23.2763 408.654 23.2763Z" fill="#FFB8B8"/>
<path d="M420.891 12.7745C420.447 14.783 419.647 16.6961 418.529 18.4234C418.232 19.0123 417.788 19.5151 417.24 19.8836C416.963 20.0612 416.632 20.1361 416.305 20.0953C415.978 20.0545 415.676 19.9006 415.451 19.6603L415.209 19.4638C415.683 19.1724 416.106 18.8059 416.462 18.3787C416.638 18.1643 416.76 17.9111 416.819 17.64C416.877 17.369 416.87 17.0879 416.798 16.8202C416.712 16.5563 416.527 16.3357 416.282 16.205C416.036 16.0743 415.75 16.0435 415.482 16.1192C414.901 16.3469 414.547 17.1864 413.939 17.0569C413.447 16.9498 413.344 16.3023 413.344 15.7932C413.362 13.1318 412.073 9.34952 411.076 9.46563C410.068 9.52063 409.059 9.3858 408.101 9.0682C407.142 8.75004 406.13 8.62112 405.122 8.68861C405.05 8.69756 404.978 8.71096 404.902 8.72435C404.741 8.21869 404.518 7.73439 404.24 7.282C404.272 7.82809 404.245 8.37597 404.16 8.91636C403.357 9.24648 402.528 9.50791 401.681 9.69782C400.76 9.82733 398.733 12.5781 398.639 12.2967C398.478 11.7911 398.256 11.3068 397.977 10.8544C398.009 11.4005 397.982 11.9484 397.897 12.4887C397.892 12.5111 397.892 12.5289 397.888 12.5513C397.441 11.9573 397.168 11.2339 397.32 11.7877C395.821 8.40285 396.403 5.97809 398.76 3.12464C399.22 2.51109 399.828 2.02402 400.527 1.70906C400.878 1.55545 401.262 1.49448 401.643 1.53203C402.023 1.56957 402.388 1.70437 402.701 1.92343C403.663 1.04343 404.843 0.43612 406.119 0.164452C407.395 -0.107215 408.72 -0.0333625 409.958 0.378358C412.414 1.23128 414.306 1.73141 414.682 4.30353C415.706 4.19167 416.742 4.37129 417.669 4.82165C418.596 5.27201 419.376 5.97476 419.92 6.84884C420.979 8.63195 421.325 10.7477 420.891 12.7745Z" fill="#2F2E41"/>
<path d="M431.489 77.1919L431.505 57.2896L417.477 58.335L421.614 70.8874L408.907 93.6068C407.968 93.8171 407.111 94.2956 406.44 94.9839C405.769 95.6721 405.312 96.5405 405.127 97.483C404.942 98.4255 405.035 99.4015 405.396 100.292C405.757 101.182 406.369 101.949 407.159 102.498C407.948 103.047 408.881 103.355 409.843 103.384C410.804 103.413 411.754 103.162 412.575 102.662C413.397 102.161 414.055 101.433 414.469 100.566C414.883 99.6992 415.035 98.7307 414.907 97.7787L431.489 77.1919Z" fill="#FFB6B6"/>
<path d="M427.288 36.1069C432.778 38.4671 434.018 74.113 432.784 73.9107C429.277 73.3358 422.238 70.0026 420.134 70.99C418.93 71.5547 417.607 61.3293 417.607 61.3293C417.607 61.3293 416.333 55.6042 414.839 48.2056C414.378 46.1218 414.452 43.9553 415.055 41.9079C415.659 39.8605 416.771 37.9988 418.289 36.496C418.289 36.496 421.798 33.7468 427.288 36.1069Z" fill="#6C63FF"/>
<path d="M88.2475 256.042C87.884 255.711 87.5977 255.304 87.4087 254.851C87.2197 254.397 87.1326 253.908 87.1535 253.417C87.1745 252.926 87.303 252.446 87.53 252.01C87.757 251.574 88.0769 251.194 88.4674 250.895L84.6984 239.562L90.7018 241.172L93.3605 251.687C93.8203 252.375 94.0114 253.207 93.8974 254.026C93.7834 254.846 93.3724 255.595 92.7421 256.131C92.1119 256.668 91.3062 256.956 90.4779 256.939C89.6495 256.923 88.8559 256.604 88.2475 256.042Z" fill="#FFB6B6"/>
<path d="M99.1281 194.47C100.124 195.04 106.018 193.627 107.169 194.029C106.534 197.899 109.984 196.447 106.237 201.529C102.49 206.611 94.9418 221.848 93.2272 227.543C91.5125 233.237 93.2096 241.263 92.9528 243.962C92.8287 245.526 92.8364 247.097 92.9759 248.66C90.9512 248.634 88.9556 249.054 86.8993 248.786C84.7063 242.592 83.2318 233.775 82.2306 228.902C81.2294 224.03 81.1928 226.09 81.652 223.654C82.1112 221.217 82.2224 222.988 81.74 220.657C81.2577 218.326 83.2085 215.397 85.0111 213.728C85.7882 211.496 86.7927 209.416 87.5621 207.208C93.2005 202.298 93.5712 199.461 99.1281 194.47Z" fill="#3F3D56"/>
<path d="M151.904 248.858C151.416 248.928 150.92 248.89 150.449 248.748C149.978 248.605 149.544 248.361 149.178 248.033C148.812 247.705 148.522 247.301 148.329 246.849C148.136 246.397 148.045 245.908 148.062 245.417L136.901 241.119L141.962 237.516L151.785 242.15C152.609 242.233 153.374 242.615 153.935 243.223C154.496 243.832 154.815 244.624 154.829 245.451C154.844 246.278 154.554 247.082 154.015 247.71C153.476 248.338 152.724 248.746 151.904 248.858Z" fill="#FFB6B6"/>
<path d="M111.198 201.339C112.272 200.933 114.925 195.494 115.967 194.862C118.557 197.811 119.627 194.229 121.175 200.347C122.724 206.465 129.712 221.966 133.026 226.907C136.341 231.848 143.627 235.641 145.551 237.554C146.681 238.644 147.902 239.636 149.199 240.522C147.892 242.066 146.948 243.871 145.434 245.285C139.25 243.038 131.493 238.571 127.088 236.245C122.684 233.92 124.254 235.258 122.661 233.355C121.069 231.453 122.509 232.493 120.4 231.383C118.29 230.273 117.265 226.908 117.119 224.458C115.887 222.441 114.917 220.344 113.698 218.348C113.484 210.882 111.526 208.794 111.198 201.339Z" fill="#3F3D56"/>
<path d="M119.595 235.004L125.165 259.814L89.4744 257.598L99.1796 233.232L119.595 235.004Z" fill="#FFB6B6"/>
<path d="M113.652 349.512L117.661 349.511L119.568 334.076H113.651L113.652 349.512Z" fill="#FFB6B6"/>
<path d="M112.294 347.537L118.632 347.16V349.87L124.657 354.024C124.955 354.229 125.179 354.524 125.297 354.865C125.415 355.206 125.42 355.576 125.313 355.921C125.205 356.266 124.99 356.567 124.699 356.781C124.407 356.995 124.055 357.11 123.693 357.11H116.148L114.848 354.429L114.34 357.11H111.495L112.294 347.537Z" fill="#2F2E41"/>
<path d="M75.761 347.521L79.6787 348.369L84.8211 333.688L79.0387 332.436L75.761 347.521Z" fill="#FFB6B6"/>
<path d="M74.8532 345.304L81.1269 346.276L80.5512 348.925L85.5573 354.259C85.8046 354.523 85.9611 354.858 86.0038 355.217C86.0466 355.575 85.9735 355.938 85.7951 356.252C85.6167 356.566 85.3424 356.815 85.0123 356.962C84.6822 357.11 84.3135 357.148 83.96 357.071L76.5865 355.475L75.8849 352.579L74.8193 355.092L72.0392 354.49L74.8532 345.304Z" fill="#2F2E41"/>
<path d="M126.076 280.56C123.262 295.996 122.559 302.66 122.559 302.66C122.559 302.66 124.669 305.115 123.262 306.52C121.855 307.924 123.262 310.729 123.262 310.729L120.099 344.757L117.552 344.345L111.418 343.36L109.206 343.003L110.613 311.082C110.613 311.082 109.206 308.273 109.909 307.571C110.613 306.869 109.206 302.66 109.206 302.66L107.449 269.334L96.5525 305.818C96.5525 305.818 97.6096 307.222 96.5525 308.273C95.4994 309.324 93.3931 314.588 93.3931 314.588L86.9132 337.222L86.363 339.144L82.9835 338.512L79.3054 337.822L78.6295 337.696L77.4271 337.469L76.6529 337.324L76.3897 337.276L75.1165 337.037L75.5016 335.331L75.702 334.433L81.1838 310.128L81.3095 309.568L81.4432 308.975C81.4432 308.975 80.7397 307.222 81.7929 306.167C82.101 305.845 82.326 305.454 82.4486 305.026C82.5711 304.598 82.5875 304.147 82.4963 303.711C82.4618 303.674 82.4303 303.635 82.402 303.594C82.2776 303.423 82.1918 303.228 82.1505 303.021C82.1017 302.691 82.1406 302.355 82.2634 302.045C82.3862 301.735 82.5885 301.463 82.8499 301.256C83.0502 301.043 83.2184 300.803 83.349 300.542C84.4179 298.522 84.9562 294.242 84.9562 294.242C84.9562 294.242 85.9072 260.347 89.0194 255.17C89.1845 254.899 92.4884 249.703 92.6613 249.597C96.1744 247.495 123.544 250.399 123.544 250.399C123.544 250.399 125.202 254.844 125.277 255.307C125.682 257.908 128.461 267.467 126.076 280.56Z" fill="#2F2E41"/>
<path d="M117.759 198.917C117.759 198.917 118.351 195.848 112.661 190.168C109.648 189.165 104.428 189.75 102.618 190.168C94.2492 201.195 95.7476 199.249 93.5692 205.41C92.994 206.796 92.7885 208.307 92.9729 209.796C93.9771 214.808 95.6075 240.538 95.2728 241.874C94.938 243.211 92.5948 244.881 94.938 244.881C97.2813 244.881 127.5 244.353 126.83 243.351C126.161 242.349 117.759 198.917 117.759 198.917Z" fill="#3F3D56"/>
<path d="M108.32 188.241C113.621 188.241 117.919 183.951 117.919 178.66C117.919 173.368 113.621 169.079 108.32 169.079C103.019 169.079 98.7222 173.368 98.7222 178.66C98.7222 183.951 103.019 188.241 108.32 188.241Z" fill="#FFB6B6"/>
<path d="M100.189 182.282C100.136 183.444 99.4065 184.446 98.8434 185.463C97.8611 187.279 97.337 189.306 97.3165 191.369C97.2959 193.432 97.7795 195.469 98.7254 197.303C99.5088 198.787 100.594 200.111 101.215 201.669C101.514 202.327 101.666 203.042 101.659 203.764C101.653 204.487 101.488 205.199 101.176 205.852C99.4939 204.236 98.673 205.089 96.7625 203.679C97.5138 205.78 96.8734 205.849 97.6276 207.948C94.3851 208.872 91.1415 209.799 87.8967 210.728C89.8888 209.114 91.2957 206.892 91.9017 204.403C92.5078 201.915 92.2794 199.296 91.2518 196.95C90.0656 194.411 87.9455 192.318 87.1736 189.62C86.7535 188.16 86.7611 186.61 87.1955 185.155C87.6298 183.699 88.4728 182.397 89.6248 181.405C90.7767 180.412 92.1893 179.77 93.6956 179.553C95.2019 179.337 96.7388 179.555 98.1245 180.183C99.2153 179.872 100.241 181.139 100.189 182.282Z" fill="#2F2E41"/>
<path d="M112.244 167.921C110.954 165.106 107.548 165.679 104.469 166.05C102.931 166.287 101.474 166.894 100.225 167.82C98.9753 168.745 97.9707 169.961 97.2981 171.361C95.9819 174.2 95.7303 177.415 96.589 180.423C97.0497 182.472 98.1491 184.322 99.7292 185.707C101.356 187.013 109 190.1 109.637 187.442C108.841 190.91 106.771 192.885 109.14 195.544C110.368 191.864 115.557 188.369 116.784 184.689C116.969 184.136 116.21 177.626 116.395 177.072C116.784 175.904 117.174 174.735 117.455 173.537C117.809 172.032 117.945 170.306 117.008 169.075C116.072 167.844 113.713 167.796 113.239 169.268" fill="#2F2E41"/>
<path d="M110.699 179.638L110.289 177.031C110.568 173.788 110.112 168.63 112.244 167.921L113.548 169.223C112.723 169.497 111.155 174.346 110.699 179.638Z" fill="#FF6584"/>
<path d="M204.198 357.237C204.199 357.337 204.179 357.436 204.141 357.529C204.102 357.622 204.046 357.706 203.975 357.777C203.904 357.848 203.819 357.904 203.727 357.943C203.634 357.981 203.534 358 203.434 358H23.3307C23.1279 358 22.9334 357.92 22.79 357.776C22.6466 357.633 22.566 357.439 22.566 357.237C22.566 357.034 22.6466 356.84 22.79 356.697C22.9334 356.554 23.1279 356.473 23.3307 356.473H203.434C203.534 356.473 203.634 356.493 203.727 356.531C203.819 356.569 203.904 356.625 203.975 356.696C204.046 356.767 204.102 356.852 204.141 356.944C204.179 357.037 204.199 357.136 204.198 357.237Z" fill="#CCCCCC"/>
<path d="M298.48 309.801H166.112C163.386 309.801 160.771 310.882 158.843 312.807C156.915 314.731 155.831 317.342 155.831 320.063C155.831 322.785 156.915 325.396 158.843 327.32C160.771 329.245 163.386 330.326 166.112 330.326H298.48C301.206 330.326 303.821 329.245 305.749 327.32C307.677 325.396 308.76 322.785 308.76 320.063C308.76 317.342 307.677 314.731 305.749 312.807C303.821 310.882 301.206 309.801 298.48 309.801Z" fill="#E6E6E6"/>
</g>
<defs>
<clipPath id="clip0_1_519">
<rect width="464" height="358" fill="white"/>
</clipPath>
</defs>
</svg>
