<svg width="40" height="40" viewBox="0 0 40 40" fill="none" xmlns="http://www.w3.org/2000/svg">
<g filter="url(#filter0_d_265_1445)">
<circle cx="20" cy="16" r="10" fill="#318DC1"/>
</g>
<g filter="url(#filter1_d_265_1445)">
<path d="M17.6001 19.2V16.1098L16.5457 15.2331L15.6001 14.7465V18.6546C15.6001 18.9564 15.8691 19.2 16.2001 19.2H17.6001Z" fill="white"/>
<path d="M22.4001 19.1999H23.8001C24.1321 19.1999 24.4001 18.9554 24.4001 18.6546V14.7465L23.3291 15.3038L22.4001 16.1098V19.1999Z" fill="white"/>
<path d="M17.6001 16.1098L17.4566 14.9022L17.6001 13.7466L20.0001 15.3826L22.4001 13.7466L22.5606 14.8399L22.4001 16.1098L20.0001 17.7456L17.6001 16.1098Z" fill="white"/>
<path d="M22.4001 13.7466L22.4001 16.1098L24.4001 14.7465L24.4001 14.0195C24.4001 13.3451 23.5531 12.9607 22.9601 13.3651L22.4001 13.7466Z" fill="white"/>
<path d="M15.6001 14.7465L17.6001 16.1098L17.6001 13.7466L17.0401 13.3651C16.4461 12.9606 15.6001 13.3451 15.6001 14.0194V14.7465Z" fill="white"/>
</g>
<defs>
<filter id="filter0_d_265_1445" x="0" y="0" width="40" height="40" filterUnits="userSpaceOnUse" color-interpolation-filters="sRGB">
<feFlood flood-opacity="0" result="BackgroundImageFix"/>
<feColorMatrix in="SourceAlpha" type="matrix" values="0 0 0 0 0 0 0 0 0 0 0 0 0 0 0 0 0 0 127 0" result="hardAlpha"/>
<feOffset dy="4"/>
<feGaussianBlur stdDeviation="5"/>
<feColorMatrix type="matrix" values="0 0 0 0 0 0 0 0 0 0 0 0 0 0 0 0 0 0 0.25 0"/>
<feBlend mode="normal" in2="BackgroundImageFix" result="effect1_dropShadow_265_1445"/>
<feBlend mode="normal" in="SourceGraphic" in2="effect1_dropShadow_265_1445" result="shape"/>
</filter>
<filter id="filter1_d_265_1445" x="11.6001" y="10.2" width="16.8" height="14" filterUnits="userSpaceOnUse" color-interpolation-filters="sRGB">
<feFlood flood-opacity="0" result="BackgroundImageFix"/>
<feColorMatrix in="SourceAlpha" type="matrix" values="0 0 0 0 0 0 0 0 0 0 0 0 0 0 0 0 0 0 127 0" result="hardAlpha"/>
<feOffset dy="1"/>
<feGaussianBlur stdDeviation="2"/>
<feComposite in2="hardAlpha" operator="out"/>
<feColorMatrix type="matrix" values="0 0 0 0 0 0 0 0 0 0 0 0 0 0 0 0 0 0 0.5 0"/>
<feBlend mode="normal" in2="BackgroundImageFix" result="effect1_dropShadow_265_1445"/>
<feBlend mode="normal" in="SourceGraphic" in2="effect1_dropShadow_265_1445" result="shape"/>
</filter>
</defs>
</svg>
