<svg width="40" height="40" viewBox="0 0 40 40" fill="none" xmlns="http://www.w3.org/2000/svg">
<g filter="url(#filter0_d_265_1452)">
<circle cx="20" cy="16" r="10" fill="#318DC1"/>
</g>
<g filter="url(#filter1_d_265_1452)">
<path d="M23.9222 15.5342H23.6V15.52H20V16.88H22.2606C21.9308 17.6717 21.0446 18.24 20 18.24C18.6746 18.24 17.6 17.3266 17.6 16.2C17.6 15.0735 18.6746 14.16 20 14.16C20.6118 14.16 21.1684 14.3562 21.5922 14.6767L22.7236 13.715C22.0092 13.1491 21.0536 12.8 20 12.8C17.791 12.8 16 14.3224 16 16.2C16 18.0777 17.791 19.6 20 19.6C22.209 19.6 24 18.0777 24 16.2C24 15.9721 23.9724 15.7495 23.9222 15.5342Z" fill="white"/>
<path d="M16.4612 14.6175L17.7754 15.4367C18.131 14.6884 18.9922 14.16 20 14.16C20.6118 14.16 21.1684 14.3562 21.5922 14.6767L22.7236 13.715C22.0092 13.1491 21.0536 12.8 20 12.8C18.4636 12.8 17.1312 13.5373 16.4612 14.6175Z" fill="white"/>
<path d="M20 19.6C21.0332 19.6 21.972 19.2638 22.6818 18.7172L21.4438 17.8268C21.0287 18.0951 20.5215 18.2404 20 18.24C18.9596 18.24 18.0762 17.676 17.7434 16.8891L16.439 17.7433C17.101 18.8444 18.4454 19.6 20 19.6Z" fill="white"/>
<path d="M23.9222 15.5342H23.6V15.52H20V16.88H22.2606C22.1028 17.2568 21.8187 17.5861 21.4432 17.8271L21.4438 17.8268L22.6818 18.7172C22.5942 18.7849 24 17.9 24 16.2C24 15.9721 23.9724 15.7495 23.9222 15.5342Z" fill="white"/>
</g>
<defs>
<filter id="filter0_d_265_1452" x="0" y="0" width="40" height="40" filterUnits="userSpaceOnUse" color-interpolation-filters="sRGB">
<feFlood flood-opacity="0" result="BackgroundImageFix"/>
<feColorMatrix in="SourceAlpha" type="matrix" values="0 0 0 0 0 0 0 0 0 0 0 0 0 0 0 0 0 0 127 0" result="hardAlpha"/>
<feOffset dy="4"/>
<feGaussianBlur stdDeviation="5"/>
<feColorMatrix type="matrix" values="0 0 0 0 0 0 0 0 0 0 0 0 0 0 0 0 0 0 0.25 0"/>
<feBlend mode="normal" in2="BackgroundImageFix" result="effect1_dropShadow_265_1452"/>
<feBlend mode="normal" in="SourceGraphic" in2="effect1_dropShadow_265_1452" result="shape"/>
</filter>
<filter id="filter1_d_265_1452" x="12" y="9.80005" width="16" height="14.8" filterUnits="userSpaceOnUse" color-interpolation-filters="sRGB">
<feFlood flood-opacity="0" result="BackgroundImageFix"/>
<feColorMatrix in="SourceAlpha" type="matrix" values="0 0 0 0 0 0 0 0 0 0 0 0 0 0 0 0 0 0 127 0" result="hardAlpha"/>
<feOffset dy="1"/>
<feGaussianBlur stdDeviation="2"/>
<feComposite in2="hardAlpha" operator="out"/>
<feColorMatrix type="matrix" values="0 0 0 0 0 0 0 0 0 0 0 0 0 0 0 0 0 0 0.5 0"/>
<feBlend mode="normal" in2="BackgroundImageFix" result="effect1_dropShadow_265_1452"/>
<feBlend mode="normal" in="SourceGraphic" in2="effect1_dropShadow_265_1452" result="shape"/>
</filter>
</defs>
</svg>
