<svg width="581" height="404" viewBox="0 0 581 404" fill="none" xmlns="http://www.w3.org/2000/svg">
<g clip-path="url(#clip0_1_67)">
<path d="M115.76 404C179.693 404 231.521 400.066 231.521 395.213C231.521 390.36 179.693 386.426 115.76 386.426C51.8277 386.426 0 390.36 0 395.213C0 400.066 51.8277 404 115.76 404Z" fill="#E6E6E6"/>
<path d="M88.4851 89.6405C108.631 81.0767 133.723 86.5027 158.228 90.2685C158.456 85.7081 161.22 80.1578 158.324 76.9762C154.807 73.1109 155.131 69.0495 157.247 64.9647C162.66 54.5193 154.905 43.4048 147.075 34.1633C145.31 32.085 143.08 30.452 140.565 29.397C138.05 28.3421 135.321 27.8948 132.601 28.0917L118.096 29.1271C114.566 29.3791 111.198 30.7024 108.442 32.9199C105.685 35.1375 103.672 38.1435 102.671 41.5358C99.208 46.2435 97.3542 50.9382 98.5213 55.6084C93.3336 59.1516 92.462 63.4285 94.7932 68.2501C96.7699 71.2859 96.7489 74.241 94.7033 77.1143C92.0168 80.7775 89.9592 84.8622 88.6148 89.2007L88.4851 89.6405Z" fill="#2F2E41"/>
<path d="M567.233 349.252H156.636C152.985 349.252 149.483 347.802 146.901 345.221C144.319 342.641 142.869 339.141 142.869 335.492C291.71 318.204 437.754 318.204 581 335.492C581 339.141 579.55 342.641 576.968 345.221C574.386 347.802 570.884 349.252 567.233 349.252Z" fill="#2F2E41"/>
<path d="M581 336.301L142.869 335.492L193.647 250.101L193.89 249.697V61.5055C193.89 59.2213 194.34 56.9594 195.214 54.849C196.089 52.7386 197.371 50.821 198.987 49.2058C200.603 47.5906 202.521 46.3094 204.633 45.4354C206.745 44.5613 209.008 44.1115 211.293 44.1117H510.146C512.431 44.1115 514.695 44.5613 516.806 45.4354C518.918 46.3094 520.836 47.5906 522.453 49.2058C524.069 50.821 525.351 52.7386 526.225 54.849C527.1 56.9594 527.55 59.2213 527.55 61.5055V250.992L581 336.301Z" fill="#3F3D56"/>
<path d="M210.897 56.2526C209.394 56.2542 207.953 56.8517 206.89 57.9139C205.827 58.976 205.229 60.4162 205.228 61.9183V233.509C205.229 235.011 205.827 236.451 206.89 237.513C207.953 238.575 209.394 239.173 210.897 239.175H512.972C514.475 239.173 515.916 238.575 516.979 237.513C518.042 236.451 518.639 235.011 518.641 233.509V61.9183C518.64 60.4162 518.042 58.9761 516.979 57.914C515.916 56.8518 514.475 56.2543 512.972 56.2526H210.897Z" fill="white"/>
<path d="M212.162 261.837C211.698 261.838 211.243 261.972 210.852 262.222C210.461 262.473 210.15 262.829 209.955 263.251L194.309 297.245C194.139 297.615 194.064 298.022 194.092 298.428C194.12 298.834 194.25 299.227 194.47 299.57C194.69 299.913 194.993 300.195 195.35 300.39C195.707 300.586 196.108 300.688 196.516 300.688H525.548C525.962 300.688 526.369 300.582 526.731 300.381C527.093 300.179 527.397 299.889 527.615 299.536C527.832 299.184 527.956 298.782 527.975 298.369C527.993 297.955 527.906 297.544 527.72 297.174L510.714 263.18C510.513 262.775 510.203 262.436 509.819 262.198C509.435 261.961 508.992 261.836 508.541 261.837H212.162Z" fill="#2F2E41"/>
<path d="M360.72 53.4197C362.732 53.4197 364.364 51.789 364.364 49.7774C364.364 47.7659 362.732 46.1352 360.72 46.1352C358.707 46.1352 357.075 47.7659 357.075 49.7774C357.075 51.789 358.707 53.4197 360.72 53.4197Z" fill="white"/>
<path d="M328.379 307.163C327.844 307.164 327.325 307.34 326.902 307.665C326.478 307.99 326.172 308.445 326.033 308.96L322.108 323.529C322.011 323.889 321.998 324.266 322.071 324.632C322.143 324.997 322.299 325.342 322.525 325.637C322.752 325.933 323.044 326.173 323.379 326.338C323.713 326.503 324.081 326.589 324.454 326.589H399.093C399.48 326.589 399.862 326.496 400.206 326.319C400.55 326.141 400.847 325.884 401.072 325.569C401.296 325.253 401.442 324.889 401.497 324.506C401.552 324.123 401.515 323.732 401.388 323.366L396.342 308.797C396.177 308.32 395.867 307.906 395.455 307.614C395.044 307.321 394.551 307.163 394.046 307.163H328.379Z" fill="#2F2E41"/>
<path d="M527.549 246.864V250.101H193.647L193.898 249.697V246.864H527.549Z" fill="#2F2E41"/>
<path d="M518.236 113.315C549.545 113.315 574.926 87.9482 574.926 56.6573C574.926 25.3663 549.545 0 518.236 0C486.927 0 461.547 25.3663 461.547 56.6573C461.547 87.9482 486.927 113.315 518.236 113.315Z" fill="#2F2E41"/>
<path d="M541.722 81.3437H494.751C493.892 81.3428 493.068 81.0014 492.461 80.3945C491.854 79.7875 491.512 78.9645 491.511 78.1061V49.7775C491.512 48.9191 491.854 48.0961 492.461 47.4892C493.068 46.8822 493.892 46.5408 494.751 46.5399H541.722C542.581 46.5408 543.404 46.8822 544.012 47.4892C544.619 48.0961 544.961 48.9191 544.961 49.7775V78.1061C544.961 78.9645 544.619 79.7875 544.012 80.3945C543.404 81.0014 542.581 81.3428 541.722 81.3437ZM494.751 49.7775V78.1061H541.724L541.722 49.7775L494.751 49.7775Z" fill="#F4FAFF"/>
<path d="M532.814 49.7774H503.659V36.8272C503.659 27.4473 509.79 20.6394 518.236 20.6394C526.683 20.6394 532.814 27.4473 532.814 36.8272L532.814 49.7774ZM506.898 46.5399H529.574V36.8272C529.574 29.2024 524.912 23.877 518.236 23.877C511.561 23.877 506.898 29.2024 506.898 36.8272L506.898 46.5399Z" fill="#F4FAFF"/>
<path d="M518.236 66.3699C520.025 66.3699 521.476 64.9204 521.476 63.1324C521.476 61.3443 520.025 59.8948 518.236 59.8948C516.447 59.8948 514.997 61.3443 514.997 63.1324C514.997 64.9204 516.447 66.3699 518.236 66.3699Z" fill="white"/>
<path d="M478.662 180.973H245.207C244.061 180.971 242.962 180.516 242.152 179.706C241.341 178.896 240.885 177.798 240.884 176.652V118.775C240.885 117.63 241.341 116.531 242.152 115.721C242.962 114.911 244.061 114.456 245.207 114.454H478.662C479.808 114.456 480.907 114.911 481.717 115.721C482.528 116.531 482.984 117.63 482.985 118.775V176.652C482.984 177.798 482.528 178.896 481.717 179.706C480.907 180.516 479.808 180.971 478.662 180.973ZM245.207 116.183C244.519 116.183 243.86 116.457 243.374 116.943C242.887 117.429 242.614 118.088 242.613 118.775V176.652C242.614 177.339 242.887 177.998 243.374 178.484C243.86 178.97 244.519 179.244 245.207 179.244H478.662C479.35 179.244 480.009 178.97 480.495 178.484C480.982 177.998 481.255 177.339 481.256 176.652V118.775C481.255 118.088 480.982 117.429 480.495 116.943C480.009 116.457 479.35 116.183 478.662 116.183L245.207 116.183Z" fill="#E6E6E6"/>
<path d="M281.481 163.093C291.207 163.093 299.092 155.213 299.092 145.493C299.092 135.772 291.207 127.892 281.481 127.892C271.755 127.892 263.87 135.772 263.87 145.493C263.87 155.213 271.755 163.093 281.481 163.093Z" fill="#E6E6E6"/>
<path d="M322.153 133.759C321.767 133.759 321.385 133.834 321.028 133.981C320.672 134.128 320.348 134.344 320.075 134.617C319.802 134.889 319.585 135.213 319.437 135.569C319.289 135.925 319.213 136.307 319.213 136.693C319.213 137.078 319.289 137.46 319.437 137.816C319.585 138.172 319.802 138.496 320.075 138.768C320.348 139.041 320.672 139.257 321.028 139.404C321.385 139.551 321.767 139.627 322.153 139.626H460.522C461.3 139.626 462.047 139.317 462.597 138.767C463.148 138.217 463.457 137.471 463.457 136.693C463.457 135.915 463.148 135.168 462.597 134.618C462.047 134.068 461.3 133.759 460.522 133.759H322.153Z" fill="#E6E6E6"/>
<path d="M322.153 151.36C321.375 151.36 320.628 151.669 320.078 152.219C319.527 152.769 319.218 153.515 319.218 154.293C319.218 155.071 319.527 155.817 320.078 156.367C320.628 156.917 321.375 157.226 322.153 157.226H381.693C382.472 157.226 383.218 156.917 383.769 156.367C384.319 155.817 384.629 155.071 384.629 154.293C384.629 153.515 384.319 152.769 383.769 152.219C383.218 151.669 382.472 151.36 381.693 151.36H322.153Z" fill="#E6E6E6"/>
<path d="M193.072 152.546L149.916 175.477L149.37 156.368C163.456 154.018 176.857 149.926 189.248 143.265L193.762 132.12C194.254 130.906 195.053 129.84 196.081 129.028C197.11 128.215 198.332 127.684 199.628 127.486C200.924 127.289 202.249 127.431 203.473 127.9C204.697 128.368 205.778 129.147 206.61 130.159C207.827 131.64 208.436 133.529 208.312 135.442C208.189 137.354 207.342 139.149 205.944 140.461L193.072 152.546Z" fill="#FFB8B8"/>
<path d="M87.6249 284.939C87.3101 283.785 87.2433 282.577 87.4288 281.396C87.6143 280.214 88.0481 279.085 88.7014 278.083L98.1816 263.542C100.424 260.103 103.864 257.619 107.836 256.571C111.807 255.524 116.026 255.989 119.674 257.875C115.69 264.653 116.245 270.599 121.05 275.766C113.591 279.405 106.698 284.102 100.582 289.712C99.4661 290.472 98.1841 290.955 96.8432 291.121C95.5022 291.286 94.1412 291.128 92.8735 290.661C91.6057 290.194 90.468 289.431 89.5551 288.436C88.6421 287.44 87.9804 286.241 87.6249 284.939Z" fill="#2F2E41"/>
<path d="M195.038 265.927C193.603 268.316 191.578 270.297 189.157 271.679C186.736 273.061 184 273.798 181.212 273.819L118.232 274.296L115.501 258.463L143.361 250.274L119.871 232.257L145.546 202.229L192.18 245.669C194.905 248.208 196.676 251.605 197.197 255.292C197.717 258.979 196.955 262.733 195.038 265.927Z" fill="#2F2E41"/>
<path d="M108.399 374.208H93.6496C80.4067 283.485 66.9267 192.508 106.76 158.552L153.74 166.195L147.731 206.051L121.51 236.079L108.399 374.208Z" fill="#2F2E41"/>
<path d="M121.365 394.759C120.21 395.074 119.002 395.141 117.819 394.956C116.637 394.77 115.507 394.337 114.505 393.684L98.4898 391.532C95.0485 389.292 92.5627 385.853 91.5147 381.884C90.4667 377.915 90.9313 373.699 92.8182 370.052C99.6003 374.034 105.55 373.479 110.72 368.676C114.373 376.048 120.392 375.598 126.14 381.809C126.901 382.925 127.384 384.206 127.55 385.546C127.715 386.886 127.557 388.246 127.09 389.513C126.623 390.78 125.86 391.918 124.864 392.83C123.868 393.743 122.668 394.404 121.365 394.759Z" fill="#2F2E41"/>
<path d="M143.361 97.9498L116.047 91.3983C120.583 82.1179 120.957 71.7916 118.778 60.8242L137.352 60.2783C137.934 73.9165 139.694 86.6581 143.361 97.9498Z" fill="#FFB8B8"/>
<path d="M150.868 182.634C130.984 196.175 116.935 183.097 106.214 162.92C107.704 150.573 105.292 135.797 100.824 119.742C98.8372 112.661 99.579 105.092 102.903 98.5308C106.227 91.9694 111.892 86.8919 118.778 84.3007L142.268 94.1281C162.214 110.377 166.14 127.977 158.657 146.541L150.868 182.634Z" fill="#2F2E41"/>
<path d="M93.6497 111.599L71.7985 123.064L110.584 145.995L115.981 159.299C116.341 160.187 116.517 161.139 116.497 162.097C116.477 163.055 116.262 163.999 115.865 164.871C115.468 165.744 114.898 166.526 114.188 167.171C113.479 167.815 112.646 168.309 111.74 168.621C110.709 168.976 109.611 169.088 108.53 168.948C107.449 168.808 106.415 168.42 105.51 167.814C104.604 167.208 103.851 166.4 103.31 165.455C102.769 164.51 102.454 163.452 102.39 162.365L101.844 153.092L52.5476 136.834C50.8867 136.286 49.3723 135.368 48.1191 134.148C46.8659 132.929 45.9068 131.441 45.3143 129.796C44.4508 127.399 44.4068 124.783 45.1893 122.358C45.9719 119.933 47.5367 117.835 49.6389 116.394L89.2794 89.2144L93.6497 111.599Z" fill="#FFB8B8"/>
<path d="M115.501 113.783C106.387 109.791 98.1005 114.127 87.6405 117.605L86.0017 88.6684C96.388 83.1359 106.291 81.6442 115.501 85.9386L115.501 113.783Z" fill="#2F2E41"/>
<path d="M126.402 74.6113C136.033 74.6113 143.841 66.8082 143.841 57.1825C143.841 47.5568 136.033 39.7536 126.402 39.7536C116.771 39.7536 108.963 47.5568 108.963 57.1825C108.963 66.8082 116.771 74.6113 126.402 74.6113Z" fill="#FFB8B8"/>
<path d="M147.265 54.9834C129.999 56.6735 116.842 53.8513 108.434 45.8157V39.3444H145.8L147.265 54.9834Z" fill="#2F2E41"/>
</g>
<defs>
<clipPath id="clip0_1_67">
<rect width="581" height="404" fill="white"/>
</clipPath>
</defs>
</svg>
