<svg width="630" height="396" viewBox="0 0 630 396" fill="none" xmlns="http://www.w3.org/2000/svg">
<path d="M629.115 162.404H628.052V133.297C628.052 131.085 627.616 128.894 626.77 126.85C625.923 124.807 624.682 122.95 623.118 121.385C621.554 119.821 619.697 118.58 617.653 117.733C615.609 116.887 613.418 116.451 611.206 116.451H549.54C547.328 116.451 545.137 116.887 543.093 117.733C541.049 118.58 539.192 119.821 537.628 121.385C536.064 122.95 534.823 124.807 533.976 126.85C533.13 128.894 532.694 131.085 532.694 133.297V292.977C532.694 295.19 533.13 297.38 533.976 299.424C534.823 301.468 536.064 303.325 537.628 304.889C539.192 306.454 541.049 307.695 543.093 308.541C545.137 309.388 547.328 309.824 549.54 309.824H611.206C613.418 309.824 615.609 309.388 617.653 308.541C619.697 307.695 621.554 306.454 623.118 304.889C624.682 303.325 625.923 301.468 626.77 299.424C627.616 297.38 628.052 295.19 628.052 292.977V183.122H629.115V162.404Z" fill="#3F3D56"/>
<path d="M624.467 134.286V293.735C624.467 297.072 623.142 300.272 620.782 302.631C618.422 304.991 615.222 306.317 611.885 306.317H549.923C548.271 306.317 546.635 305.991 545.109 305.359C543.583 304.726 542.196 303.799 541.028 302.631C539.86 301.462 538.934 300.075 538.302 298.549C537.67 297.022 537.346 295.387 537.346 293.735V134.286C537.346 130.951 538.671 127.752 541.03 125.394C543.388 123.035 546.587 121.71 549.923 121.71H557.44C557.071 122.617 556.931 123.602 557.031 124.576C557.132 125.55 557.47 126.485 558.017 127.298C558.563 128.111 559.301 128.777 560.165 129.238C561.03 129.699 561.994 129.941 562.974 129.942H598.302C599.283 129.944 600.249 129.704 601.115 129.244C601.981 128.783 602.72 128.117 603.267 127.303C603.814 126.489 604.152 125.553 604.251 124.578C604.351 123.602 604.208 122.617 603.836 121.71H611.885C615.221 121.71 618.421 123.035 620.78 125.393C623.14 127.751 624.466 130.95 624.467 134.286Z" fill="#F4FAFF"/>
<path d="M612.737 203.343H540.707V222.78H612.737V203.343Z" fill="#318DC1"/>
<path d="M615.595 219.35H545.852C545.398 219.35 544.962 219.169 544.64 218.847C544.319 218.526 544.138 218.09 544.137 217.635V200.485C544.138 200.031 544.319 199.595 544.64 199.273C544.962 198.952 545.398 198.771 545.852 198.77H615.595C616.05 198.771 616.486 198.952 616.807 199.273C617.129 199.595 617.31 200.031 617.31 200.485V217.635C617.31 218.09 617.129 218.526 616.807 218.847C616.486 219.169 616.05 219.35 615.595 219.35ZM545.852 199.914C545.701 199.914 545.555 199.974 545.448 200.081C545.341 200.189 545.281 200.334 545.281 200.485V217.635C545.281 217.787 545.341 217.932 545.448 218.039C545.555 218.147 545.701 218.207 545.852 218.207H615.595C615.747 218.207 615.892 218.147 615.999 218.039C616.106 217.932 616.167 217.787 616.167 217.635V200.485C616.167 200.334 616.106 200.189 615.999 200.081C615.892 199.974 615.747 199.914 615.595 199.914H545.852Z" fill="#3F3D56"/>
<path d="M557.857 214.207H548.711V215.35H557.857V214.207Z" fill="#3F3D56"/>
<path d="M570.434 214.207H561.287V215.35H570.434V214.207Z" fill="#3F3D56"/>
<path d="M583.01 214.207H573.864V215.35H583.01V214.207Z" fill="#3F3D56"/>
<path d="M595.587 214.207H586.44V215.35H595.587V214.207Z" fill="#3F3D56"/>
<path d="M608.164 214.207H599.017V215.35H608.164V214.207Z" fill="#3F3D56"/>
<path d="M327.477 262.798H57.0812V395.423H327.477V262.798Z" fill="#F4FAFF"/>
<path d="M601.303 280.519H182.275V281.662H601.303V280.519Z" fill="#3F3D56"/>
<path d="M314.753 2.4683H194.996V0H140.693V2.4683H20.4422C19.3784 2.4683 18.3251 2.67783 17.3422 3.08493C16.3594 3.49202 15.4664 4.08871 14.7142 4.84093C13.962 5.59315 13.3653 6.48616 12.9582 7.46898C12.5511 8.4518 12.3416 9.50518 12.3416 10.569V174.554C12.3415 176.702 13.195 178.762 14.7142 180.282C16.2334 181.801 18.2938 182.654 20.4422 182.654H314.753C316.902 182.654 318.962 181.801 320.481 180.282C322 178.762 322.854 176.702 322.854 174.554V10.569C322.854 9.50518 322.644 8.4518 322.237 7.46898C321.83 6.48616 321.233 5.59315 320.481 4.84093C319.729 4.08871 318.836 3.49202 317.853 3.08493C316.87 2.67783 315.817 2.4683 314.753 2.4683Z" fill="#3F3D56"/>
<path d="M311.991 16.7822H23.2045V179.694H311.991V16.7822Z" fill="#F4FAFF"/>
<path d="M167.351 12.3414C168.987 12.3414 170.313 11.0153 170.313 9.37943C170.313 7.74358 168.987 6.41747 167.351 6.41747C165.715 6.41747 164.389 7.74358 164.389 9.37943C164.389 11.0153 165.715 12.3414 167.351 12.3414Z" fill="#318DC1"/>
<path d="M109.103 77.5787H102.243C101.788 77.5782 101.352 77.3974 101.03 77.0759C100.709 76.7543 100.528 76.3184 100.528 75.8637V69.0038C100.528 68.5491 100.709 68.1132 101.03 67.7917C101.352 67.4701 101.788 67.2893 102.243 67.2888H109.103C109.557 67.2893 109.993 67.4701 110.315 67.7917C110.636 68.1132 110.817 68.5491 110.818 69.0038V75.8637C110.817 76.3184 110.636 76.7543 110.315 77.0759C109.993 77.3974 109.557 77.5782 109.103 77.5787ZM102.243 68.4321C102.091 68.4323 101.946 68.4926 101.839 68.5998C101.731 68.7069 101.671 68.8522 101.671 69.0038V75.8637C101.671 76.0153 101.731 76.1606 101.839 76.2677C101.946 76.3749 102.091 76.4352 102.243 76.4354H109.103C109.254 76.4352 109.399 76.3749 109.507 76.2677C109.614 76.1606 109.674 76.0153 109.674 75.8637V69.0038C109.674 68.8522 109.614 68.7069 109.507 68.5998C109.399 68.4926 109.254 68.4323 109.103 68.4321H102.243Z" fill="#3F3D56"/>
<path d="M231.438 76.4348H101.099V77.5781H231.438V76.4348Z" fill="#3F3D56"/>
<path d="M228.008 107.876H197.71V117.023H228.008V107.876Z" fill="#318DC1"/>
<path d="M230.295 114.737H202.283C201.829 114.737 201.393 114.556 201.071 114.235C200.75 113.913 200.569 113.477 200.568 113.022V106.163C200.569 105.708 200.75 105.272 201.071 104.95C201.393 104.629 201.829 104.448 202.283 104.448H230.295C230.749 104.448 231.185 104.629 231.507 104.95C231.828 105.272 232.009 105.708 232.01 106.163V113.022C232.009 113.477 231.828 113.913 231.507 114.235C231.185 114.556 230.749 114.737 230.295 114.737ZM202.283 105.591C202.132 105.591 201.987 105.651 201.879 105.758C201.772 105.866 201.712 106.011 201.712 106.163V113.022C201.712 113.174 201.772 113.319 201.879 113.426C201.987 113.534 202.132 113.594 202.283 113.594H230.295C230.446 113.594 230.592 113.534 230.699 113.426C230.806 113.319 230.866 113.174 230.866 113.022V106.163C230.866 106.011 230.806 105.866 230.699 105.758C230.592 105.651 230.446 105.591 230.295 105.591H202.283Z" fill="#3F3D56"/>
<path d="M461.246 120.453H404.08V160.469H461.246V120.453Z" fill="#F4FAFF"/>
<path d="M465.248 155.038H410.368C409.762 155.037 409.181 154.796 408.752 154.367C408.324 153.939 408.082 153.358 408.082 152.751V115.022C408.082 114.415 408.324 113.834 408.752 113.405C409.181 112.977 409.762 112.736 410.368 112.735H465.248C465.854 112.736 466.435 112.977 466.864 113.405C467.293 113.834 467.534 114.415 467.535 115.022V152.751C467.534 153.358 467.293 153.939 466.864 154.367C466.435 154.796 465.854 155.037 465.248 155.038ZM410.368 115.022V152.751H465.25L465.248 115.022H410.368Z" fill="#3F3D56"/>
<path d="M458.96 113.594H456.673C456.673 108.59 454.686 103.792 451.148 100.254C447.61 96.7162 442.812 94.7287 437.808 94.7287C432.805 94.7287 428.007 96.7162 424.469 100.254C420.931 103.792 418.943 108.59 418.943 113.594H416.657C416.657 107.984 418.885 102.604 422.852 98.6372C426.819 94.6705 432.199 92.4421 437.808 92.4421C443.418 92.4421 448.798 94.6705 452.765 98.6372C456.731 102.604 458.96 107.984 458.96 113.594Z" fill="#3F3D56"/>
<path d="M443.525 129.314C443.526 128.319 443.267 127.34 442.774 126.475C442.281 125.611 441.57 124.89 440.713 124.384C439.856 123.878 438.881 123.605 437.886 123.591C436.89 123.578 435.909 123.824 435.038 124.307C434.167 124.789 433.437 125.491 432.921 126.342C432.404 127.193 432.119 128.164 432.093 129.159C432.067 130.154 432.302 131.139 432.773 132.015C433.245 132.892 433.937 133.631 434.782 134.158V140.293C434.782 140.691 434.86 141.084 435.012 141.452C435.164 141.819 435.387 142.152 435.668 142.433C435.949 142.714 436.283 142.937 436.65 143.089C437.017 143.242 437.411 143.32 437.808 143.32C438.611 143.32 439.381 143.001 439.948 142.433C440.516 141.866 440.835 141.096 440.835 140.293V134.158C441.657 133.645 442.336 132.932 442.807 132.084C443.278 131.237 443.525 130.283 443.525 129.314Z" fill="#3F3D56"/>
<path d="M171.699 321.679H162.553V322.822H171.699V321.679Z" fill="#3F3D56"/>
<path d="M184.276 321.679H175.129V322.822H184.276V321.679Z" fill="#3F3D56"/>
<path d="M196.853 321.679H187.706V322.822H196.853V321.679Z" fill="#3F3D56"/>
<path d="M209.429 321.679H200.283V322.822H209.429V321.679Z" fill="#3F3D56"/>
<path d="M222.006 321.679H212.859V322.822H222.006V321.679Z" fill="#3F3D56"/>
<path d="M339.482 385.705H71.3728C70.7666 385.704 70.1853 385.463 69.7566 385.034C69.3279 384.605 69.0868 384.024 69.0862 383.418V253.079C69.0868 252.473 69.3279 251.891 69.7566 251.463C70.1853 251.034 70.7666 250.793 71.3728 250.792H339.482C340.088 250.793 340.67 251.034 341.098 251.463C341.527 251.891 341.768 252.473 341.769 253.079V383.418C341.768 384.024 341.527 384.605 341.098 385.034C340.67 385.463 340.088 385.704 339.482 385.705ZM71.3728 253.079V383.418H339.484L339.482 253.079H71.3728Z" fill="#3F3D56"/>
<path d="M83.3777 272.515C85.272 272.515 86.8077 270.98 86.8077 269.085C86.8077 267.191 85.272 265.655 83.3777 265.655C81.4834 265.655 79.9478 267.191 79.9478 269.085C79.9478 270.98 81.4834 272.515 83.3777 272.515Z" fill="#3F3D56"/>
<path d="M95.3826 272.515C97.2769 272.515 98.8126 270.98 98.8126 269.085C98.8126 267.191 97.2769 265.655 95.3826 265.655C93.4883 265.655 91.9526 267.191 91.9526 269.085C91.9526 270.98 93.4883 272.515 95.3826 272.515Z" fill="#3F3D56"/>
<path d="M107.387 272.515C109.282 272.515 110.817 270.98 110.817 269.085C110.817 267.191 109.282 265.655 107.387 265.655C105.493 265.655 103.958 267.191 103.958 269.085C103.958 270.98 105.493 272.515 107.387 272.515Z" fill="#3F3D56"/>
<path d="M230.867 329.682H153.692C153.237 329.682 152.802 329.501 152.48 329.18C152.159 328.858 151.978 328.422 151.977 327.967V308.531C151.978 308.076 152.159 307.64 152.48 307.319C152.802 306.997 153.237 306.816 153.692 306.816H230.867C231.321 306.816 231.757 306.997 232.079 307.319C232.4 307.64 232.581 308.076 232.582 308.531V327.967C232.581 328.422 232.4 328.858 232.079 329.18C231.757 329.501 231.321 329.682 230.867 329.682ZM153.692 307.959C153.541 307.959 153.395 308.02 153.288 308.127C153.181 308.234 153.121 308.379 153.12 308.531V327.967C153.121 328.119 153.181 328.264 153.288 328.372C153.395 328.479 153.541 328.539 153.692 328.539H230.867C231.018 328.539 231.163 328.479 231.271 328.372C231.378 328.264 231.438 328.119 231.438 327.967V308.531C231.438 308.379 231.378 308.234 231.271 308.127C231.163 308.02 231.018 307.959 230.867 307.959H153.692Z" fill="#3F3D56"/>
<path d="M250.303 330.253C255.986 330.253 260.593 325.646 260.593 319.964C260.593 314.281 255.986 309.674 250.303 309.674C244.62 309.674 240.013 314.281 240.013 319.964C240.013 325.646 244.62 330.253 250.303 330.253Z" fill="#318DC1"/>
<path d="M253.733 329.11C251.585 329.11 249.485 328.473 247.699 327.28C245.913 326.086 244.52 324.39 243.698 322.405C242.876 320.421 242.661 318.237 243.08 316.13C243.499 314.023 244.534 312.087 246.053 310.568C247.572 309.049 249.507 308.015 251.614 307.596C253.721 307.177 255.905 307.392 257.89 308.214C259.874 309.036 261.571 310.428 262.764 312.214C263.958 314 264.595 316.1 264.595 318.249C264.591 321.128 263.446 323.889 261.41 325.925C259.373 327.962 256.613 329.107 253.733 329.11ZM253.733 308.53C251.811 308.53 249.932 309.1 248.334 310.168C246.736 311.236 245.49 312.754 244.755 314.53C244.019 316.305 243.827 318.259 244.202 320.145C244.577 322.03 245.502 323.761 246.861 325.121C248.22 326.48 249.952 327.405 251.837 327.78C253.722 328.155 255.676 327.963 257.452 327.227C259.228 326.492 260.746 325.246 261.813 323.648C262.881 322.05 263.451 320.171 263.451 318.249C263.448 315.672 262.424 313.202 260.602 311.38C258.78 309.558 256.31 308.533 253.733 308.53Z" fill="#3F3D56"/>
<path d="M253.885 322.305L248.351 316.771L249.968 315.154L253.58 318.766L263.66 304.442L265.53 305.759L253.885 322.305Z" fill="#3F3D56"/>
<path d="M330.962 176.731H302.778V174.7C302.778 174.647 302.768 174.595 302.748 174.546C302.727 174.497 302.698 174.453 302.66 174.415C302.623 174.378 302.579 174.348 302.53 174.328C302.481 174.308 302.429 174.297 302.376 174.297H292.713C292.66 174.297 292.607 174.308 292.558 174.328C292.51 174.348 292.465 174.378 292.428 174.415C292.39 174.453 292.361 174.497 292.341 174.546C292.32 174.595 292.31 174.647 292.31 174.7V176.731H286.27V174.7C286.27 174.647 286.26 174.595 286.24 174.546C286.22 174.497 286.19 174.453 286.153 174.415C286.115 174.378 286.071 174.348 286.022 174.328C285.973 174.308 285.921 174.297 285.868 174.297H276.205C276.152 174.297 276.099 174.308 276.051 174.328C276.002 174.348 275.957 174.378 275.92 174.415C275.883 174.453 275.853 174.497 275.833 174.546C275.812 174.595 275.802 174.647 275.802 174.7V176.731H269.763V174.7C269.763 174.647 269.752 174.595 269.732 174.546C269.712 174.497 269.682 174.453 269.645 174.415C269.607 174.378 269.563 174.348 269.514 174.328C269.465 174.308 269.413 174.297 269.36 174.297H259.697C259.644 174.297 259.592 174.308 259.543 174.328C259.494 174.348 259.45 174.378 259.412 174.415C259.375 174.453 259.345 174.497 259.325 174.546C259.305 174.595 259.294 174.647 259.294 174.7V176.731H253.255V174.7C253.255 174.647 253.244 174.595 253.224 174.546C253.204 174.497 253.174 174.453 253.137 174.415C253.099 174.378 253.055 174.348 253.006 174.328C252.957 174.308 252.905 174.297 252.852 174.297H243.189C243.136 174.297 243.084 174.308 243.035 174.328C242.986 174.348 242.942 174.378 242.904 174.415C242.867 174.453 242.837 174.497 242.817 174.546C242.797 174.595 242.786 174.647 242.786 174.7V176.731H236.747V174.7C236.747 174.647 236.736 174.595 236.716 174.546C236.696 174.497 236.666 174.453 236.629 174.415C236.592 174.378 236.547 174.348 236.498 174.328C236.449 174.308 236.397 174.297 236.344 174.297H226.681C226.628 174.297 226.576 174.308 226.527 174.328C226.478 174.348 226.434 174.378 226.396 174.415C226.359 174.453 226.329 174.497 226.309 174.546C226.289 174.595 226.278 174.647 226.278 174.7V176.731H220.239V174.7C220.239 174.647 220.229 174.595 220.208 174.546C220.188 174.497 220.158 174.453 220.121 174.415C220.084 174.378 220.039 174.348 219.99 174.328C219.942 174.308 219.889 174.297 219.836 174.297H210.173C210.12 174.297 210.068 174.308 210.019 174.328C209.97 174.348 209.926 174.378 209.889 174.415C209.851 174.453 209.822 174.497 209.801 174.546C209.781 174.595 209.771 174.647 209.771 174.7V176.731H203.731V174.7C203.731 174.647 203.721 174.595 203.701 174.546C203.68 174.497 203.651 174.453 203.613 174.415C203.576 174.378 203.531 174.348 203.483 174.328C203.434 174.308 203.381 174.297 203.329 174.297H127.634C127.581 174.297 127.529 174.308 127.48 174.328C127.431 174.348 127.387 174.378 127.349 174.415C127.312 174.453 127.282 174.497 127.262 174.546C127.242 174.595 127.231 174.647 127.231 174.7V176.731H121.192V174.7C121.192 174.647 121.181 174.595 121.161 174.546C121.141 174.497 121.111 174.453 121.074 174.415C121.037 174.378 120.992 174.348 120.943 174.328C120.894 174.308 120.842 174.297 120.789 174.297H111.126C111.073 174.297 111.021 174.308 110.972 174.328C110.923 174.348 110.879 174.378 110.841 174.415C110.804 174.453 110.774 174.497 110.754 174.546C110.734 174.595 110.723 174.647 110.723 174.7V176.731H104.684V174.7C104.684 174.647 104.674 174.595 104.653 174.546C104.633 174.497 104.603 174.453 104.566 174.415C104.529 174.378 104.484 174.348 104.435 174.328C104.387 174.308 104.334 174.297 104.281 174.297H94.6182C94.5654 174.297 94.513 174.308 94.4641 174.328C94.4153 174.348 94.3709 174.378 94.3335 174.415C94.2961 174.453 94.2665 174.497 94.2462 174.546C94.226 174.595 94.2156 174.647 94.2156 174.7V176.731H88.1761V174.7C88.1761 174.647 88.1657 174.595 88.1455 174.546C88.1253 174.497 88.0956 174.453 88.0582 174.415C88.0208 174.378 87.9764 174.348 87.9276 174.328C87.8787 174.308 87.8264 174.297 87.7735 174.297H78.1104C78.0575 174.297 78.0051 174.308 77.9563 174.328C77.9074 174.348 77.8631 174.378 77.8257 174.415C77.7883 174.453 77.7586 174.497 77.7384 174.546C77.7182 174.595 77.7078 174.647 77.7078 174.7V176.731H71.6683V174.7C71.6683 174.647 71.6579 174.595 71.6376 174.546C71.6174 174.497 71.5877 174.453 71.5504 174.415C71.513 174.378 71.4686 174.348 71.4197 174.328C71.3709 174.308 71.3185 174.297 71.2656 174.297H61.6025C61.5496 174.297 61.4973 174.308 61.4484 174.328C61.3996 174.348 61.3552 174.378 61.3178 174.415C61.2804 174.453 61.2507 174.497 61.2305 174.546C61.2103 174.595 61.1999 174.647 61.1999 174.7V176.731H55.1604V174.7C55.1604 174.647 55.15 174.595 55.1298 174.546C55.1096 174.497 55.0799 174.453 55.0425 174.415C55.0051 174.378 54.9607 174.348 54.9119 174.328C54.863 174.308 54.8107 174.297 54.7578 174.297H45.0946C45.0418 174.297 44.9894 174.308 44.9406 174.328C44.8917 174.348 44.8473 174.378 44.8099 174.415C44.7726 174.453 44.7429 174.497 44.7227 174.546C44.7024 174.595 44.692 174.647 44.692 174.7V176.731H38.6525V174.7C38.6525 174.647 38.6421 174.595 38.6219 174.546C38.6017 174.497 38.572 174.453 38.5346 174.415C38.4972 174.378 38.4529 174.348 38.404 174.328C38.3552 174.308 38.3028 174.297 38.2499 174.297H28.5868C28.5339 174.297 28.4816 174.308 28.4327 174.328C28.3839 174.348 28.3395 174.378 28.3021 174.415C28.2647 174.453 28.235 174.497 28.2148 174.546C28.1946 174.595 28.1842 174.647 28.1842 174.7V176.731H9.66314C8.39415 176.731 7.1376 176.981 5.96521 177.466C4.79283 177.952 3.72757 178.664 2.83026 179.561C1.93296 180.458 1.22118 181.524 0.735561 182.696C0.249943 183.868 -7.50716e-07 185.125 0 186.394V190.763C6.06456e-06 193.326 1.01809 195.784 2.83028 197.596C4.64246 199.408 7.10032 200.426 9.66314 200.426H330.962C332.231 200.426 333.488 200.177 334.66 199.691C335.833 199.205 336.898 198.493 337.795 197.596C338.693 196.699 339.404 195.634 339.89 194.461C340.376 193.289 340.626 192.032 340.626 190.763V186.394C340.626 185.125 340.376 183.868 339.89 182.696C339.404 181.524 338.693 180.458 337.795 179.561C336.898 178.664 335.833 177.952 334.66 177.466C333.488 176.981 332.231 176.731 330.962 176.731Z" fill="#3F3D56"/>
<path d="M242.871 124.456H91.9525C91.4978 124.455 91.0619 124.274 90.7404 123.953C90.4189 123.631 90.238 123.195 90.2375 122.741V59.8578C90.238 59.4031 90.4189 58.9672 90.7404 58.6457C91.0619 58.3242 91.4978 58.1433 91.9525 58.1428H242.871C243.326 58.1433 243.762 58.3242 244.083 58.6457C244.405 58.9672 244.586 59.4031 244.586 59.8578V122.741C244.586 123.195 244.405 123.631 244.083 123.953C243.762 124.274 243.326 124.455 242.871 124.456ZM91.9525 59.2861C91.801 59.2863 91.6557 59.3466 91.5485 59.4538C91.4414 59.561 91.3811 59.7062 91.3809 59.8578V122.741C91.3811 122.892 91.4414 123.037 91.5485 123.145C91.6557 123.252 91.801 123.312 91.9525 123.312H242.871C243.023 123.312 243.168 123.252 243.275 123.145C243.383 123.037 243.443 122.892 243.443 122.741V59.8578C243.443 59.7062 243.383 59.561 243.275 59.4538C243.168 59.3466 243.023 59.2863 242.871 59.2861H91.9525Z" fill="#3F3D56"/>
<path d="M109.103 94.7283H102.243C101.788 94.7278 101.352 94.547 101.03 94.2255C100.709 93.904 100.528 93.468 100.528 93.0134V86.1534C100.528 85.6987 100.709 85.2628 101.03 84.9413C101.352 84.6198 101.788 84.4389 102.243 84.4384H109.103C109.557 84.4389 109.993 84.6198 110.315 84.9413C110.636 85.2628 110.817 85.6987 110.818 86.1534V93.0134C110.817 93.468 110.636 93.904 110.315 94.2255C109.993 94.547 109.557 94.7278 109.103 94.7283ZM102.243 85.5817C102.091 85.5819 101.946 85.6422 101.839 85.7494C101.731 85.8566 101.671 86.0018 101.671 86.1534V93.0134C101.671 93.1649 101.731 93.3102 101.839 93.4174C101.946 93.5245 102.091 93.5848 102.243 93.585H109.103C109.254 93.5848 109.399 93.5245 109.507 93.4174C109.614 93.3102 109.674 93.1649 109.674 93.0134V86.1534C109.674 86.0018 109.614 85.8566 109.507 85.7494C109.399 85.6422 109.254 85.5819 109.103 85.5817H102.243Z" fill="#3F3D56"/>
<path d="M231.438 93.5844H101.099V94.7277H231.438V93.5844Z" fill="#3F3D56"/>
<path d="M570.434 154.181H151.406V155.324H570.434V154.181Z" fill="#3F3D56"/>
<path d="M151.405 162.184C155.826 162.184 159.409 158.601 159.409 154.181C159.409 149.761 155.826 146.177 151.405 146.177C146.985 146.177 143.402 149.761 143.402 154.181C143.402 158.601 146.985 162.184 151.405 162.184Z" fill="#3F3D56"/>
<path d="M570.434 161.613C573.907 161.613 576.722 158.798 576.722 155.325C576.722 151.852 573.907 149.037 570.434 149.037C566.961 149.037 564.146 151.852 564.146 155.325C564.146 158.798 566.961 161.613 570.434 161.613Z" fill="#3F3D56"/>
<path d="M601.304 287.951C604.777 287.951 607.592 285.136 607.592 281.663C607.592 278.19 604.777 275.374 601.304 275.374C597.831 275.374 595.015 278.19 595.015 281.663C595.015 285.136 597.831 287.951 601.304 287.951Z" fill="#3F3D56"/>
<path d="M183.99 287.951C187.463 287.951 190.278 285.136 190.278 281.663C190.278 278.19 187.463 275.374 183.99 275.374C180.517 275.374 177.702 278.19 177.702 281.663C177.702 285.136 180.517 287.951 183.99 287.951Z" fill="#3F3D56"/>
</svg>
