<svg width="640" height="382" viewBox="0 0 640 382" fill="none" xmlns="http://www.w3.org/2000/svg">
<g clip-path="url(#clip0_1_602)">
<path d="M489.999 377.68C481.805 370.768 476.828 359.849 478.134 349.219C479.439 338.589 487.523 328.817 498.009 326.559C508.495 324.302 520.449 330.551 523.634 340.777C525.387 321.061 527.407 300.518 537.907 283.728C547.414 268.524 563.881 257.646 581.727 255.7C599.574 253.753 618.364 261.104 629.494 275.167C640.624 289.229 643.349 309.674 635.554 325.819C629.811 337.713 619.232 346.564 608.147 353.765C572.327 376.838 529.367 386.221 487.169 380.187L489.999 377.68Z" fill="#F2F2F2"/>
<path d="M611.846 261.511C597.12 273.486 583.611 286.878 571.514 301.495C552.582 324.292 537.261 349.851 526.087 377.283C525.269 379.284 528.524 380.155 529.333 378.176C547.616 333.594 576.804 294.3 614.226 263.888C615.906 262.521 613.512 260.156 611.846 261.511Z" fill="white"/>
<path d="M206.026 375.802C217.28 366.308 224.116 351.311 222.324 336.71C220.531 322.11 209.427 308.688 195.025 305.587C180.622 302.487 164.203 311.069 159.829 325.116C157.421 298.035 154.647 269.82 140.225 246.758C127.167 225.876 104.55 210.935 80.0377 208.262C55.5256 205.589 29.7175 215.684 14.4302 235C-0.857082 254.315 -4.60011 282.395 6.10671 304.571C13.994 320.906 28.5253 333.064 43.7504 342.954C92.3239 374.509 152.579 387.669 209.913 379.245" fill="#F2F2F2"/>
<path d="M38.6698 216.244C58.8953 232.691 77.45 251.085 94.0657 271.161C110.684 291.217 125.315 312.834 137.752 335.71C144.704 348.542 150.949 361.744 156.459 375.256C157.583 378.004 153.112 379.201 152.001 376.483C142.241 352.661 130.166 329.852 115.949 308.382C101.801 286.99 85.6074 267.019 67.5965 248.749C57.4094 238.42 46.6613 228.658 35.4006 219.508C33.0925 217.631 36.3807 214.383 38.6697 216.244L38.6698 216.244Z" fill="white"/>
<path d="M459.402 381.164H190.896V106.124C190.896 47.6068 238.582 0 297.195 0H353.104C411.717 0 459.402 47.6068 459.402 106.124V381.164Z" fill="#F2F2F2"/>
<path d="M403.494 381.164H190.897V106.124C190.838 83.7013 197.95 61.8456 211.197 43.7388C211.685 43.0743 212.172 42.4184 212.675 41.7697C219.082 33.3797 226.707 25.9908 235.298 19.8469C235.784 19.4943 236.271 19.1479 236.765 18.8015C243.954 13.835 251.73 9.77488 259.917 6.71371C260.403 6.52975 260.898 6.34542 261.393 6.16862C268.798 3.53064 276.473 1.72364 284.278 0.780978C284.762 0.71499 285.258 0.663354 285.755 0.611717C293.361 -0.200162 301.032 -0.200162 308.637 0.611717C309.133 0.663354 309.629 0.714984 310.119 0.781684C317.922 1.72441 325.595 3.53119 332.997 6.16866C333.493 6.34545 333.988 6.52977 334.475 6.71409C342.561 9.73664 350.246 13.7361 357.358 18.6233C357.852 18.9622 358.347 19.3086 358.834 19.655C363.649 23.0868 368.173 26.9099 372.357 31.0855C375.713 34.4348 378.84 38.0049 381.718 41.7719C382.219 42.4185 382.706 43.0743 383.193 43.7378C396.441 61.8448 403.553 83.7008 403.494 106.124V381.164Z" fill="#CCCCCC"/>
<path d="M386.207 258.149C392.707 258.149 397.977 252.888 397.977 246.398C397.977 239.908 392.707 234.647 386.207 234.647C379.706 234.647 374.437 239.908 374.437 246.398C374.437 252.888 379.706 258.149 386.207 258.149Z" fill="#2F2E41"/>
<path d="M437.406 372.926H428.387L424.096 338.197L437.408 338.197L437.406 372.926Z" fill="#FFB8B8"/>
<path d="M421.945 370.353H439.338V381.286H410.994C410.994 379.85 411.277 378.429 411.828 377.102C412.378 375.776 413.185 374.571 414.201 373.555C415.218 372.54 416.426 371.735 417.754 371.185C419.083 370.636 420.507 370.353 421.945 370.353Z" fill="#2F2E41"/>
<path d="M482.28 372.926H473.261L468.97 338.197L482.281 338.197L482.28 372.926Z" fill="#FFB8B8"/>
<path d="M466.819 370.353H484.212V381.286H455.867C455.867 379.85 456.151 378.429 456.701 377.102C457.251 375.776 458.058 374.571 459.075 373.555C460.092 372.54 461.299 371.735 462.628 371.185C463.957 370.636 465.381 370.353 466.819 370.353Z" fill="#2F2E41"/>
<path d="M392.164 248.726C391.515 247.771 391.084 246.687 390.9 245.548C390.717 244.409 390.786 243.244 391.102 242.135C391.418 241.025 391.974 239.999 392.731 239.127C393.488 238.256 394.427 237.56 395.482 237.09L426.14 152.73L441.226 160.949L406.221 241.567C406.894 243.389 406.875 245.394 406.167 247.202C405.458 249.011 404.11 250.497 402.377 251.38C400.645 252.262 398.648 252.479 396.765 251.99C394.883 251.501 393.246 250.339 392.164 248.726Z" fill="#FFB8B8"/>
<path d="M477.673 264.577C476.671 264.004 475.807 263.218 475.141 262.274C474.476 261.331 474.027 260.254 473.824 259.119C473.621 257.983 473.67 256.817 473.967 255.702C474.264 254.588 474.803 253.552 475.545 252.668L466.047 163.429L483.215 164.212L487.162 251.99C488.568 253.332 489.431 255.143 489.589 257.079C489.746 259.014 489.187 260.94 488.018 262.492C486.848 264.043 485.149 265.112 483.242 265.497C481.336 265.881 479.354 265.554 477.673 264.577Z" fill="#FFB8B8"/>
<path d="M450.285 137.104C460.263 137.104 468.353 129.028 468.353 119.066C468.353 109.104 460.263 101.028 450.285 101.028C440.306 101.028 432.217 109.104 432.217 119.066C432.217 129.028 440.306 137.104 450.285 137.104Z" fill="#FFB8B8"/>
<path d="M477.557 244.282H423.086L423.152 243.859C423.25 243.226 432.86 180.376 425.772 159.815C425.061 157.794 425.123 155.582 425.947 153.605C426.772 151.627 428.3 150.024 430.237 149.104C440.368 144.341 459.815 138.476 476.229 152.71C478.644 154.838 480.53 157.499 481.738 160.481C482.946 163.464 483.442 166.685 483.187 169.892L477.557 244.282Z" fill="#2F2E41"/>
<path d="M433.548 189.664L409.025 184.697L420.52 157.502C421.208 154.868 422.914 152.614 425.264 151.234C427.615 149.854 430.417 149.461 433.057 150.142C435.697 150.822 437.959 152.52 439.347 154.864C440.735 157.207 441.135 160.004 440.46 162.641L433.548 189.664Z" fill="#2F2E41"/>
<path d="M464.957 198.887L463.482 165.147C462.364 158.804 466.001 152.808 471.594 151.828C477.189 150.852 482.652 155.251 483.775 161.64L489.317 193.167L464.957 198.887Z" fill="#2F2E41"/>
<path d="M475.745 240.242C484.51 273.568 485.466 315.938 483.102 362.156L471.331 360.687L449.998 272.557L438.228 362.156L424.987 361.422C421.031 312.928 417.179 271.297 423.515 243.914L475.745 240.242Z" fill="#2F2E41"/>
<path d="M462.19 133.006C458.819 136.591 452.559 134.667 452.12 129.77C452.086 129.389 452.088 129.007 452.128 128.627C452.354 126.458 453.61 124.489 453.309 122.198C453.241 121.628 453.028 121.085 452.691 120.62C450.005 117.029 443.7 122.226 441.165 118.975C439.61 116.982 441.438 113.844 440.245 111.616C438.671 108.676 434.008 110.126 431.083 108.516C427.83 106.724 428.024 101.741 430.166 98.7096C432.778 95.0129 437.357 93.0403 441.88 92.756C446.402 92.4717 450.894 93.6922 455.116 95.3348C459.913 97.2013 464.67 99.7807 467.622 103.992C471.212 109.113 471.557 115.998 469.762 121.986C468.67 125.629 464.942 130.079 462.19 133.006Z" fill="#2F2E41"/>
<path d="M617.918 381.636H74.8046C74.5728 381.636 74.3506 381.543 74.1869 381.379C74.0232 381.215 73.9313 380.993 73.9313 380.762C73.9313 380.53 74.0232 380.308 74.1869 380.144C74.3506 379.981 74.5728 379.888 74.8046 379.887H617.918C618.149 379.888 618.372 379.981 618.535 380.144C618.699 380.308 618.791 380.53 618.791 380.762C618.791 380.993 618.699 381.215 618.535 381.379C618.372 381.543 618.149 381.636 617.918 381.636Z" fill="#3F3D56"/>
<path d="M345.011 301.479H249.379C248.12 301.486 246.909 300.994 246.013 300.111C245.116 299.227 244.607 298.025 244.598 296.768V83.6617C244.607 82.4043 245.116 81.2021 246.013 80.3189C246.909 79.4356 248.12 78.9434 249.379 78.9501H345.011C346.271 78.9434 347.482 79.4356 348.378 80.3189C349.274 81.2021 349.783 82.4043 349.793 83.6617V296.768C349.783 298.025 349.274 299.227 348.378 300.111C347.482 300.994 346.271 301.486 345.011 301.479Z" fill="white"/>
<path d="M349.793 147.905H244.598V149.373H349.793V147.905Z" fill="#CCCCCC"/>
<path d="M350.161 231.709H244.965V233.178H350.161V231.709Z" fill="#CCCCCC"/>
<path d="M279.172 78.9501H277.701V302.214H279.172V78.9501Z" fill="#CCCCCC"/>
<path d="M315.954 78.9501H314.483V302.214H315.954V78.9501Z" fill="#CCCCCC"/>
</g>
<defs>
<clipPath id="clip0_1_602">
<rect width="640" height="382" fill="white"/>
</clipPath>
</defs>
</svg>
