<svg width="409" height="398" viewBox="0 0 409 398" fill="none" xmlns="http://www.w3.org/2000/svg">
<g clip-path="url(#clip0_1_129)">
<path d="M260.867 89.2172H239.105V274.496C239.105 277.403 238.531 280.281 237.417 282.967C236.303 285.653 234.671 288.093 232.612 290.148C230.554 292.204 228.11 293.835 225.421 294.947C222.732 296.059 219.849 296.632 216.938 296.632H50.5593V296.844C50.5593 299.751 51.1327 302.629 52.2466 305.315C53.3606 308.001 54.9934 310.441 57.0517 312.496C59.1101 314.552 61.5537 316.183 64.2431 317.295C66.9325 318.407 69.8149 318.98 72.7259 318.98H260.867C263.778 318.98 266.66 318.407 269.349 317.295C272.039 316.183 274.482 314.552 276.541 312.496C278.599 310.441 280.232 308.001 281.346 305.315C282.46 302.629 283.033 299.751 283.033 296.844V111.353C283.033 105.483 280.698 99.8521 276.541 95.7008C272.384 91.5494 266.746 89.2172 260.867 89.2172Z" fill="#F2F2F2"/>
<path d="M364.028 383.653C364.413 383.671 364.795 383.57 365.121 383.364C365.447 383.158 365.701 382.857 365.85 382.502C365.999 382.146 366.034 381.754 365.952 381.378C365.87 381.001 365.674 380.659 365.391 380.398L365.262 379.886C365.279 379.845 365.296 379.804 365.314 379.763C365.702 378.848 366.352 378.067 367.183 377.52C368.014 376.972 368.988 376.682 369.984 376.686C370.979 376.689 371.952 376.987 372.778 377.541C373.605 378.094 374.25 378.88 374.631 379.798C376.155 383.463 378.095 387.135 378.573 391.01C378.783 392.723 378.694 394.459 378.31 396.142C381.89 388.345 383.748 379.871 383.76 371.294C383.761 369.141 383.641 366.991 383.402 364.852C383.203 363.098 382.929 361.357 382.577 359.629C380.659 350.25 376.54 341.459 370.559 333.978C367.664 332.401 365.323 329.976 363.851 327.029C363.318 325.969 362.941 324.838 362.732 323.671C363.059 323.714 363.963 318.748 363.717 318.443C364.172 317.753 364.987 317.41 365.484 316.738C367.956 313.391 371.361 313.975 373.139 318.523C376.937 320.437 376.974 323.612 374.643 326.665C373.161 328.608 372.957 331.236 371.656 333.315C371.79 333.487 371.929 333.652 372.063 333.823C374.51 336.965 376.642 340.338 378.429 343.895C377.995 339.911 378.514 335.88 379.943 332.134C381.392 328.643 384.108 325.704 386.5 322.686C387.132 321.875 387.991 321.27 388.968 320.947C389.945 320.624 390.996 320.597 391.988 320.87C392.98 321.143 393.869 321.704 394.542 322.481C395.215 323.259 395.642 324.218 395.769 325.238C395.774 325.282 395.779 325.327 395.784 325.371C395.429 325.571 395.081 325.784 394.741 326.009C394.313 326.294 393.982 326.701 393.79 327.178C393.599 327.654 393.556 328.177 393.667 328.678C393.778 329.179 394.038 329.635 394.414 329.986C394.789 330.337 395.261 330.567 395.769 330.645L395.821 330.653C395.695 331.932 395.471 333.199 395.152 334.444C398.22 346.293 391.596 350.609 382.138 350.802C381.929 350.909 381.726 351.016 381.517 351.118C383.313 356.2 384.44 361.495 384.868 366.867C385.111 370.037 385.097 373.221 384.825 376.388L384.842 376.276C385.527 372.754 387.408 369.576 390.168 367.279C394.267 363.916 400.058 362.678 404.481 359.975C404.951 359.674 405.497 359.513 406.056 359.511C406.614 359.51 407.161 359.668 407.633 359.967C408.104 360.266 408.48 360.694 408.716 361.199C408.953 361.705 409.039 362.267 408.966 362.82L408.948 362.938C408.288 363.206 407.647 363.515 407.026 363.863C406.671 364.063 406.323 364.275 405.983 364.5C405.555 364.785 405.224 365.193 405.032 365.669C404.841 366.145 404.798 366.668 404.909 367.17C405.02 367.671 405.28 368.127 405.656 368.478C406.031 368.829 406.503 369.058 407.011 369.137L407.063 369.145C407.101 369.15 407.133 369.155 407.17 369.161C406.044 371.846 404.463 374.319 402.497 376.469C400.578 386.813 392.339 387.794 383.525 384.782H383.519C382.552 388.978 381.151 393.063 379.338 396.971H364.402C364.349 396.805 364.301 396.634 364.253 396.468C365.635 396.555 367.023 396.472 368.385 396.222C367.277 394.864 366.169 393.496 365.061 392.138C365.036 392.113 365.013 392.086 364.991 392.058C364.429 391.363 363.862 390.673 363.3 389.978L363.299 389.977C363.269 387.847 363.514 385.722 364.028 383.654L364.028 383.653Z" fill="#F2F2F2"/>
<path d="M199.522 64.0142C200.067 64.8392 200.785 65.5361 201.627 66.0567C202.468 66.5773 203.413 66.9091 204.396 67.0292C205.378 67.1493 206.375 67.0548 207.318 66.7523C208.26 66.4498 209.125 65.9464 209.854 65.2771L240.906 79.2675L246.893 71.6417L209.89 55.2943C208.671 54.1536 207.075 53.4992 205.404 53.4551C203.734 53.4111 202.106 53.9804 200.828 55.0553C199.55 56.1301 198.711 57.6358 198.47 59.287C198.229 60.9382 198.604 62.6201 199.522 64.0142H199.522Z" fill="#A0616A"/>
<path d="M332.786 72.738L335.866 90.1664C336.009 90.9795 335.981 91.8136 335.783 92.6152C335.585 93.4167 335.221 94.1681 334.715 94.8209C334.209 95.4738 333.571 96.0137 332.844 96.4061C332.116 96.7985 331.315 97.0346 330.491 97.0993L278.159 101.209L216.645 73.7163L223.992 59.7884L277.392 76.6753L332.786 72.738Z" fill="#3F3D56"/>
<path d="M210.307 60.2476H22.1666C9.9243 60.2476 0 70.1583 0 82.3838V267.874C0 280.1 9.9243 290.01 22.1666 290.01H210.307C222.55 290.01 232.474 280.1 232.474 267.874V82.3838C232.474 70.1583 222.55 60.2476 210.307 60.2476Z" fill="#F2F2F2"/>
<path d="M22.1668 64.7999C19.8545 64.7998 17.5648 65.2547 15.4285 66.1383C13.2922 67.022 11.3511 68.3172 9.71609 69.95C8.08104 71.5829 6.78403 73.5213 5.89915 75.6546C5.01427 77.788 4.55884 80.0746 4.55884 82.3837V267.874C4.55884 272.538 6.41395 277.01 9.71609 280.308C13.0182 283.606 17.4969 285.458 22.1668 285.458H142.243C153.493 285.458 164.634 283.245 175.028 278.946C185.422 274.646 194.867 268.344 202.822 260.4C210.778 252.455 217.088 243.024 221.394 232.644C225.699 222.264 227.915 211.138 227.915 199.903V82.3837C227.915 80.0746 227.46 77.788 226.575 75.6546C225.69 73.5213 224.393 71.5829 222.758 69.95C221.123 68.3172 219.182 67.022 217.046 66.1383C214.909 65.2547 212.62 64.7998 210.307 64.7999H22.1668Z" fill="white"/>
<path d="M168.831 121.093H63.2314C62.2624 121.093 61.3331 120.709 60.648 120.024C59.9628 119.34 59.5779 118.412 59.5779 117.445C59.5779 116.477 59.9628 115.549 60.648 114.865C61.3331 114.18 62.2624 113.796 63.2314 113.796H168.831C169.8 113.796 170.729 114.18 171.414 114.865C172.099 115.549 172.484 116.477 172.484 117.445C172.484 118.412 172.099 119.34 171.414 120.024C170.729 120.709 169.8 121.093 168.831 121.093Z" fill="#F2F2F2"/>
<path d="M168.831 198.897H63.2314C62.2624 198.897 61.3331 198.513 60.648 197.829C59.9628 197.144 59.5779 196.216 59.5779 195.249C59.5779 194.281 59.9628 193.353 60.648 192.669C61.3331 191.985 62.2624 191.6 63.2314 191.6H168.831C169.8 191.6 170.729 191.985 171.414 192.669C172.099 193.353 172.484 194.281 172.484 195.249C172.484 196.216 172.099 197.144 171.414 197.829C170.729 198.513 169.8 198.897 168.831 198.897Z" fill="#F2F2F2"/>
<path d="M211.713 160.021H20.3498C19.3808 160.021 18.4516 159.636 17.7664 158.952C17.0812 158.268 16.6963 157.34 16.6963 156.372C16.6963 155.404 17.0812 154.476 17.7664 153.792C18.4516 153.108 19.3808 152.724 20.3498 152.724H211.713C212.682 152.724 213.611 153.108 214.296 153.792C214.981 154.476 215.366 155.404 215.366 156.372C215.366 157.34 214.981 158.268 214.296 158.952C213.611 159.636 212.682 160.021 211.713 160.021Z" fill="#F2F2F2"/>
<path d="M326.174 149.555L307.111 190.113L380.444 182.696L365.136 143.761L326.174 149.555Z" fill="#A0616A"/>
<path d="M343.223 382.664L336.27 382.605L333.193 355.199L343.454 355.286L343.223 382.664Z" fill="#A0616A"/>
<path d="M320.952 393.705C320.946 394.528 321.267 395.32 321.845 395.907C322.422 396.494 323.21 396.828 324.034 396.836L337.858 396.952L340.278 392.053L341.167 396.977L346.383 397.024L345.066 379.463L343.251 379.342L335.849 378.833L333.461 378.673L333.419 383.642L322.314 391.163C321.898 391.445 321.557 391.824 321.32 392.267C321.082 392.709 320.956 393.203 320.952 393.705Z" fill="#2F2E41"/>
<path d="M266.278 382.696L259.649 380.599L264.77 353.5L274.554 356.593L266.278 382.696Z" fill="#A0616A"/>
<path d="M241.741 386.715C241.493 387.5 241.567 388.351 241.947 389.081C242.326 389.812 242.981 390.362 243.766 390.612L256.946 394.778L260.701 390.806L260.102 395.773L265.073 397.349L268.981 380.176L267.282 379.528L260.357 376.87L258.121 376.016L256.619 380.753L243.791 384.685C243.311 384.832 242.873 385.094 242.516 385.448C242.159 385.801 241.893 386.236 241.741 386.715Z" fill="#2F2E41"/>
<path d="M377.104 171.29L310.426 183.491C310.426 183.491 299.731 191.48 302.592 194.341C305.453 197.203 305.897 196.759 304.017 198.636C302.138 200.513 298.074 203.023 298.034 204.665C297.994 206.307 268.155 279.973 268.155 279.973C268.155 279.973 271.471 278.318 268.984 280.801C266.498 283.284 266.498 285.336 266.498 285.336L254.894 363.571L273.739 364.679L292.192 293.353L333.351 226.72C333.351 226.72 337.435 286.14 337.607 290.092C337.778 294.044 340.264 289.078 337.778 294.044C335.291 299.01 333.634 295.699 335.291 299.01C336.949 302.321 329.32 369.725 329.32 369.725H346.521L383.412 230.016C383.412 230.016 396.538 190.074 377.104 171.29Z" fill="#2F2E41"/>
<path d="M357.461 59.5405L330.752 56.7691L323.832 65.7408L315.771 70.0285C312.359 71.843 309.544 74.6004 307.66 77.9709C305.776 81.3414 304.905 85.1824 305.15 89.0345L314.57 143.762C314.57 143.762 306.613 161.656 312.084 166.11C317.555 170.563 307.854 181.594 319.544 176.042C331.233 170.49 381.706 176.87 381.706 176.87L370.932 146.245L378.981 116.151L379.867 90.9185C380.032 86.2034 378.631 81.566 375.882 77.7292C373.132 73.8925 369.189 71.0719 364.666 69.7071L363.541 69.3675L357.461 59.5405Z" fill="#3F3D56"/>
<path d="M394.233 39.0926C394.407 46.6106 391.594 53.8903 387.552 60.2843C386.351 56.5516 384.192 53.1543 381.941 49.9157C383.076 56.9216 381.867 64.1058 378.501 70.3564C378.382 70.4411 378.26 70.5198 378.133 70.5922C374.838 72.5712 370.662 73.3728 367.098 71.9434C374.461 64.0168 375.398 50.8834 369.225 41.9924C367.477 39.4696 365.216 37.2383 364.134 34.3672C362.425 29.7863 364.068 24.7426 365.104 19.9665C366.073 15.5213 366.243 10.2316 363.257 6.9739C363.576 6.51864 364.01 6.15625 364.516 5.92387C365.021 5.69149 365.579 5.59748 366.133 5.65145C367.974 5.91117 369.314 7.50936 370.168 9.15539C371.022 10.8014 371.585 12.6257 372.774 14.0474C374.977 16.7085 378.729 17.3376 381.89 18.74C389.547 22.1457 394.049 30.7271 394.233 39.0926Z" fill="#2F2E41"/>
<path d="M196.974 397.015C196.974 397.145 196.999 397.273 197.049 397.392C197.098 397.512 197.171 397.621 197.262 397.712C197.354 397.804 197.463 397.876 197.583 397.926C197.703 397.975 197.831 398 197.961 398H407.897C408.159 398 408.41 397.896 408.595 397.712C408.78 397.527 408.884 397.276 408.884 397.015C408.884 396.754 408.78 396.503 408.595 396.319C408.41 396.134 408.159 396.03 407.897 396.03H197.961C197.831 396.03 197.703 396.055 197.583 396.104C197.463 396.154 197.354 396.226 197.262 396.318C197.171 396.409 197.098 396.518 197.049 396.638C196.999 396.757 196.974 396.886 196.974 397.015Z" fill="#CCCCCC"/>
<path d="M395.886 213.339C400.005 213.339 403.345 210.004 403.345 205.89C403.345 201.775 400.005 198.44 395.886 198.44C391.766 198.44 388.426 201.775 388.426 205.89C388.426 210.004 391.766 213.339 395.886 213.339Z" fill="#6C63FF"/>
<path d="M329.784 34.7941C330.221 33.2648 327.206 42.6129 328.661 42.7816C335.289 43.541 344.387 47.4939 349.003 49.338C349.211 49.3139 349.419 49.2898 349.621 49.2597C350.116 49.2054 350.599 49.1271 351.076 49.0367C361.825 47.0057 365.959 30.5167 365.959 30.3661C365.959 29.6248 364.177 9.26543 361.371 8.96414C360.633 8.88427 359.893 8.84403 359.151 8.8436H352.187C350.746 8.53349 349.285 8.32207 347.815 8.21081H347.803C333.783 7.14409 322.728 15.6777 323.762 26.0616C323.768 26.0736 323.78 26.0857 323.786 26.0978C324.086 26.5437 324.349 26.9656 324.581 27.3694C324.807 27.749 324.997 28.1106 325.162 28.4541C326.44 31.1059 323.155 34.4425 325.333 35.0653C328.23 35.8937 317.714 63.1192 329.18 63.1192C323.603 64.7027 328.577 39.0127 329.784 34.7941Z" fill="#2F2E41"/>
<path d="M342.299 50.7689C351.406 50.7689 358.788 43.3968 358.788 34.3029C358.788 25.209 351.406 17.8369 342.299 17.8369C333.193 17.8369 325.811 25.209 325.811 34.3029C325.811 43.3968 333.193 50.7689 342.299 50.7689Z" fill="#A0616A"/>
<path d="M323.762 26.9595C324.037 27.1041 324.306 27.2367 324.581 27.3693C324.868 27.5079 325.156 27.6465 325.443 27.7731C330.964 30.2741 335.458 30.5513 338.185 26.9595C338.258 25.0695 338.683 23.2097 339.439 21.4753C339.305 23.4136 339.817 25.3415 340.894 26.9595H346.385C352.04 30.708 354.945 31.0998 351.019 43.4061C349.925 46.8352 345.573 66.7893 347.285 69.7484C347.78 69.6941 353.049 47.8382 353.526 47.7479C364.275 45.7169 371.105 28.0322 370.23 27.0318C370.235 24.1869 369.58 21.3796 368.317 18.8296C366.719 15.5989 364.228 12.8928 361.138 11.0312C359.297 10.1395 357.377 9.41931 355.403 8.87971C355.354 8.86764 355.311 8.85557 355.263 8.84355C354.657 8.68081 354.04 8.53015 353.422 8.40359C352.146 8.13458 350.856 7.93939 349.558 7.81902C349.466 7.81299 349.375 7.80695 349.289 7.80695C348.77 7.80816 348.262 7.94756 347.815 8.21076C347.809 8.21076 347.809 8.21676 347.803 8.21676C347.484 8.40292 347.206 8.65083 346.984 8.94596C346.593 9.44254 346.382 10.0563 346.385 10.6877H340.27C340.044 10.6877 339.818 10.6937 339.592 10.7057C335.511 10.845 331.629 12.5 328.706 15.3468C325.782 18.1936 324.028 22.0273 323.786 26.0977C323.768 26.387 323.762 26.6702 323.762 26.9595Z" fill="#2F2E41"/>
<path d="M359.813 21.6958C365.812 21.6958 370.676 16.839 370.676 10.8479C370.676 4.85676 365.812 0 359.813 0C353.814 0 348.95 4.85676 348.95 10.8479C348.95 16.839 353.814 21.6958 359.813 21.6958Z" fill="#2F2E41"/>
<path d="M395.969 208.961C396.499 208.126 396.842 207.187 396.972 206.207C397.103 205.227 397.019 204.23 396.726 203.286C396.433 202.342 395.938 201.472 395.276 200.738C394.613 200.003 393.799 199.421 392.889 199.032L392.942 165.012L383.523 162.684L383.755 203.09C383.213 204.668 383.269 206.39 383.914 207.93C384.558 209.47 385.745 210.72 387.251 211.443C388.756 212.167 390.476 212.314 392.082 211.857C393.689 211.399 395.072 210.369 395.969 208.961V208.961Z" fill="#A0616A"/>
<path d="M349.325 83.993L363.983 74.0454C364.667 73.5813 365.44 73.2651 366.254 73.1172C367.067 72.9692 367.902 72.9928 368.706 73.1863C369.51 73.3798 370.264 73.739 370.921 74.2409C371.577 74.7427 372.121 75.3761 372.518 76.1004L397.718 122.087L397.814 189.387L382.081 188.403L375.623 132.839L349.325 83.993Z" fill="#3F3D56"/>
<path d="M236.754 236.622H80.1036C76.6964 236.622 73.4287 237.974 71.0194 240.38C68.6101 242.786 67.2566 246.049 67.2566 249.451C67.2566 252.854 68.6101 256.117 71.0194 258.523C73.4287 260.929 76.6964 262.281 80.1036 262.281H236.754C240.161 262.281 243.429 260.929 245.838 258.523C248.248 256.117 249.601 252.854 249.601 249.451C249.601 246.049 248.248 242.786 245.838 240.38C243.429 237.974 240.161 236.622 236.754 236.622Z" fill="white"/>
<path d="M236.754 263.109H80.1036C76.4765 263.109 72.998 261.67 70.4333 259.108C67.8686 256.547 66.4277 253.074 66.4277 249.451C66.4277 245.829 67.8686 242.356 70.4333 239.794C72.998 237.233 76.4765 235.794 80.1036 235.794H236.754C240.381 235.794 243.86 237.233 246.425 239.794C248.989 242.356 250.43 245.829 250.43 249.451C250.43 253.074 248.989 256.547 246.425 259.108C243.86 261.67 240.381 263.109 236.754 263.109ZM80.1036 237.45C76.9162 237.45 73.8593 238.714 71.6055 240.965C69.3516 243.216 68.0854 246.268 68.0854 249.451C68.0854 252.634 69.3516 255.687 71.6055 257.938C73.8593 260.189 76.9162 261.453 80.1036 261.453H236.754C239.942 261.453 242.998 260.189 245.252 257.938C247.506 255.687 248.772 252.634 248.772 249.451C248.772 246.268 247.506 243.216 245.252 240.965C242.998 238.714 239.942 237.45 236.754 237.45H80.1036Z" fill="#6C63FF"/>
<path d="M245.991 292.61H176.861C175.892 292.61 174.963 292.226 174.277 291.542C173.592 290.857 173.207 289.929 173.207 288.962C173.207 287.994 173.592 287.066 174.277 286.382C174.963 285.698 175.892 285.313 176.861 285.313H245.991C246.96 285.313 247.89 285.698 248.575 286.382C249.26 287.066 249.645 287.994 249.645 288.962C249.645 289.929 249.26 290.857 248.575 291.542C247.89 292.226 246.96 292.61 245.991 292.61Z" fill="#6C63FF"/>
</g>
<defs>
<clipPath id="clip0_1_129">
<rect width="409" height="398" fill="white"/>
</clipPath>
</defs>
</svg>
